<?xml version="1.0" encoding="utf-8"?>
<!-- Generator: Adobe Illustrator 16.0.0, SVG Export Plug-In . SVG Version: 6.00 Build 0)  -->
<!DOCTYPE svg PUBLIC "-//W3C//DTD SVG 1.1//EN" "http://www.w3.org/Graphics/SVG/1.1/DTD/svg11.dtd">
<svg version="1.1" id="logo-dark" xmlns="http://www.w3.org/2000/svg" xmlns:xlink="http://www.w3.org/1999/xlink" x="0px" y="0px"
	 width="841.889px" height="689.965px" viewBox="0 0 841.889 689.965" enable-background="new 0 0 841.889 689.965"
	 xml:space="preserve">
<g>
	<g>
		<path fill="none" stroke="#FF7D7F" stroke-width="2.8302" stroke-linecap="round" stroke-miterlimit="10" d="M645.363,577.277
			c-123.727,123.727-324.784,123.727-448.512,0c-123.728-123.728-123.728-324.456,0-448.184"/>
		<path fill="none" stroke="#FF7D7F" stroke-width="2.8302" stroke-linecap="round" stroke-miterlimit="10" d="M737.171,338.706
			c3.949,86.216-26.654,173.417-92.467,239.229"/>
		<path fill="none" stroke="#FF7D7F" stroke-width="2.8302" stroke-linecap="round" stroke-miterlimit="10" d="M196.193,129.423
			c32.247-32.248,69.761-56.27,109.577-71.406"/>
	</g>
	<path fill="#FF7D7F" d="M670.702,192.273c-1.975,1.316-4.279,1.316-5.596-0.658c-1.316-1.975-0.986-4.278,0.986-5.594
		c1.975-1.316,4.279-1.316,5.596,0.657C673.005,188.325,672.675,190.628,670.702,192.273z"/>
	<path fill="#FF7D7F" d="M693.736,222.876l-5.594-9.543c-1.975,1.646-2.633,4.279-1.316,6.582c0.986,1.317,1.975,2.304,3.619,2.633
		l-0.328,1.645c-1.975-0.329-3.621-1.645-4.607-3.62c-1.975-3.291-0.988-7.24,2.303-9.213c3.291-1.975,7.24-0.988,9.213,2.303
		C699.329,217.282,697.685,220.573,693.736,222.876z M694.394,220.573c2.303-1.316,2.631-3.949,1.316-5.923
		c-1.316-2.304-3.621-2.961-6.252-1.975L694.394,220.573z"/>
	<path fill="#FF7D7F" d="M702.62,226.496c-0.658-1.316-1.646-1.973-2.961-1.316c-2.635,1.316,2.303,7.24-1.975,9.544
		c-2.305,1.315-4.607-0.33-5.594-2.633c-0.988-1.646-1.318-3.62-0.658-5.595h1.645c-0.33,1.646,0,3.291,0.658,4.608
		c0.658,1.316,1.975,2.303,2.961,1.645c2.963-1.645-1.975-7.239,1.975-9.543c2.303-1.316,4.277,0.33,5.594,2.304
		c0.658,1.316,0.986,2.961,0.986,4.278h-1.645C703.279,228.8,702.948,227.483,702.62,226.496z"/>
	<path fill="#FF7D7F" d="M699.659,245.252c-0.988-0.657-1.646-1.315-2.305-2.303c-0.986-1.645-0.33-3.621,1.975-4.607l6.91-3.291
		l-0.988-1.646l1.318-0.658l0.986,1.646l3.291-1.646l0.986,1.646l-3.291,1.645l1.975,3.949l-1.316,0.659l-1.975-3.949l-6.58,3.291
		c-1.316,0.659-1.646,1.645-1.316,2.632c0.33,0.659,0.986,0.988,1.645,1.646L699.659,245.252z"/>
	<path fill="#FF7D7F" d="M719.073,258.086c1.645-0.656,1.975-2.303,0.986-4.605c-0.658-1.646-2.303-2.962-3.947-3.95l0.986-1.317
		c1.975,0.988,3.949,2.634,4.607,4.937c1.316,3.291,0.658,5.923-1.975,6.911c-1.645,0.658-3.949,0.329-6.582-0.659l-7.568-2.961
		l3.949,9.543l-1.645,0.658l-4.938-11.848l1.646-0.656l9.543,3.62C716.113,258.415,718.087,258.744,719.073,258.086z"/>
	<path fill="#FF7D7F" d="M722.034,278.487c-5.594,1.976-9.213,0.658-10.859-3.29c-1.314-3.949,0.658-7.239,6.252-9.213
		s9.215-0.659,10.859,3.29C729.605,273.224,727.3,276.515,722.034,278.487z M718.087,267.958c-4.607,1.646-6.582,3.949-5.266,6.91
		c0.986,2.963,3.947,3.619,8.555,1.976c4.607-1.646,6.254-3.949,5.266-6.91C725.656,266.972,722.693,266.313,718.087,267.958z"/>
	<path fill="#FF7D7F" d="M729.933,289.347c1.645-0.658,2.303-2.303,1.645-4.278c-0.328-1.645-1.973-3.291-3.619-4.276l1.316-1.317
		c1.975,1.317,3.619,3.291,4.277,5.267c0.988,3.291,0,5.923-2.633,6.581c-1.645,0.327-3.949-0.329-6.58-1.646l-7.24-3.949
		l2.961,9.872l-1.973,0.658l-3.621-12.174l1.646-0.33l8.883,4.606C726.97,289.347,728.616,289.676,729.933,289.347z"/>
	<path fill="#FF7D7F" d="M730.591,310.078c-5.596,1.315-9.215,0-10.531-4.278c-0.986-4.278,1.646-7.239,7.24-8.555
		c5.594-1.317,9.213,0,10.201,4.276C738.818,305.471,736.185,308.432,730.591,310.078z M727.958,298.89
		c-4.607,1.316-6.91,3.29-5.924,6.252c0.658,2.961,3.621,3.949,8.227,2.634c4.607-1.316,6.582-3.29,5.924-6.254
		C735.527,298.89,732.894,297.903,727.958,298.89z"/>
	<g>
		<path fill="#FF7D7F" d="M266.612,522.982h40.804c3.619,0,6.91-1.317,9.543-3.949c2.632-2.632,3.948-5.923,3.948-9.543v-13.162
			c0-3.291,0.329-6.911,0.987-10.201l7.897-45.74c24.351-2.303,62.193-9.872,70.091-11.516
			c17.44,14.478,47.384,32.248,67.128,43.105c5.922,3.29,12.504,5.267,19.414,6.254l51.006,5.265c6.58,0.658,12.832,3.29,17.77,6.91
			l1.975,1.645l-2.305,14.479l-5.594,1.645c-3.291,0.987-5.266,3.949-5.266,6.91c0,3.949,3.291,7.24,7.24,7.24h12.834
			c4.605,0,8.883-2.962,10.529-7.24l9.543-25.008c0.328-1.317,0.658-2.632,0.658-3.949c0-4.935-3.291-9.214-7.898-10.86
			l-13.49-4.276l-30.932-19.085c-5.596-3.62-12.176-5.925-18.758-6.91l-17.111-2.635c-6.91-0.985-13.492-3.947-19.414-7.896
			l-24.68-17.77c-5.924-4.276-10.531-10.528-13.162-17.439v-0.329c-2.305-6.581-6.252-12.504-11.189-17.111l-7.567-6.911
			l-3.949-10.53v-16.782l11.188-17.439c3.619-5.594,4.936-12.175,3.947-18.758l-2.631-14.807l1.645-4.608
			c14.15-2.632,19.744-17.439,20.074-18.096c0.328-0.988,0.656-1.976,0.986-2.962c0.988,0.327,1.975,0.327,3.291,0.327
			c3.619,0,7.238-1.314,10.201-3.617c7.238-5.596,8.555-16.126,2.961-23.364c-4.607-6.252-13.162-7.899-19.744-4.938
			c0-0.328-0.33-0.328-0.33-0.658l-0.328-0.329l15.795-50.676l14.479-12.833c1.646-1.316,2.633-3.291,2.633-5.594
			c0-2.304-0.986-4.278-2.961-5.924c-1.646-1.316-3.949-1.975-6.252-1.316l-0.988,0.329l1.975-7.24
			c0.658-2.303,0.328-4.936-0.986-7.24c-1.316-2.303-3.621-3.62-5.924-4.277h-0.658c-3.619-0.658-7.568,0.987-9.213,4.277
			l-7.24,12.176c-1.316,2.304-2.303,5.265-2.633,7.897l-1.316,14.15l-18.756,44.752c-7.898-1.646-17.769,3.291-21.06,6.911
			c-4.606,4.936-7.239,12.175-7.897,14.807l-7.897,6.252c-1.315,0.988-1.646,2.635-0.658,3.949l3.291,5.594
			c-0.987,2.305-2.962,6.91-2.633,10.53c0.329,3.292,4.937,11.847,12.504,13.82l-0.986,2.305l-20.402,9.213
			c-7.239,3.291-12.834,10.201-14.479,18.098c-1.316,6.252-0.658,12.834,2.633,18.429l4.277,8.226l-1.316,17.112l-2.961,19.744
			c0,0.987,0,1.973,0.657,2.632l0.329,0.329l-0.658,1.317l-65.154,23.69c-5.923,1.976-9.872,7.569-9.543,13.821l3.291,57.588
			c0.329,7.566-0.658,15.136-2.961,22.375l-29.287,6.582c-2.962,0.658-4.936,3.29-4.936,6.252
			C260.359,520.021,263.322,522.982,266.612,522.982L266.612,522.982z M560.464,477.243c0.33,0,0.33,0.329,0.658,0.329l13.82,4.276
			c2.305,0.658,3.621,2.634,3.621,4.937c0,0.659,0,1.317-0.33,1.974l-9.543,25.01c-0.658,1.974-2.633,3.291-4.936,3.291h-12.832
			c-0.66,0-1.316-0.658-1.316-1.317c0-0.658,0.328-0.987,0.986-1.314l7.568-1.976c0.988-0.329,1.975-1.315,2.303-2.303l2.963-18.1
			c0.328-0.986-0.33-2.303-1.316-2.962l-3.621-2.632c-6.252-4.605-13.162-7.569-21.059-8.226l-36.197-3.949
			c1.645-5.923,6.91-15.795,11.188-22.376c5.924,0.986,11.188,2.961,16.125,5.923L560.464,477.243z M444.964,271.907
			c0,0-3.619,9.87-12.176,13.49l12.504-39.486l0,0C448.253,253.15,448.253,263.352,444.964,271.907z M463.062,248.214
			c3.619,4.607,2.633,11.188-1.973,14.809c-2.305,1.974-5.266,2.633-8.227,1.974c0.986-6.91,0.656-14.148-1.646-20.073
			C455.493,243.608,460.101,244.596,463.062,248.214z M450.228,184.705c0-0.329,0.33-0.658,0.33-0.988l1.316-14.478
			c0-1.976,0.658-3.62,1.645-5.266l7.24-12.175c0.658-0.988,1.645-1.316,2.633-1.316c0.328,0,0.328,0,0.658,0h0.656
			c0.988,0,1.646,0.657,1.975,1.316c0.33,0.659,0.66,1.646,0.33,2.303l-3.619,12.176c-0.33,0.987,0,2.304,0.658,2.962
			c0.656,0.658,1.975,0.987,2.961,0.987l6.252-1.645c0.658,0,0.986,0,0.986,0.329c0.33,0,0.33,0.329,0.33,0.987
			c0,0.329-0.33,0.657-0.33,0.987l0,0l-15.135,13.492c-0.33,0.329-0.66,0.988-0.988,1.317l-16.781,53.636l-22.706,72.394
			c-1.316,4.278-5.266,6.91-9.543,6.581c-2.633-0.329-5.265-1.974-6.581-4.276c-1.317-2.305-1.646-5.266-0.658-7.898l28.626-73.052
			L450.228,184.705z M423.245,232.748l-5.594,14.48c-3.29-3.62-6.581-6.911-8.555-9.214
			C411.399,235.71,417.98,232.09,423.245,232.748z M394.946,274.21c0-2.303,1.646-6.582,2.633-8.885
			c0.329-0.985,0.329-1.974,0-2.961l-2.633-4.605l6.252-4.938c0.659-0.329,0.988-0.987,0.988-1.645c0,0,1.315-4.278,3.62-8.557
			c2.632,2.632,6.252,6.582,9.542,10.201v0.329l-11.517,29.615C398.237,281.777,394.946,275.526,394.946,274.21L394.946,274.21z
			 M371.254,319.621c1.316-5.923,5.594-11.189,11.188-13.821l14.808-6.91l-1.646,4.607c-1.645,4.278-1.315,9.214,0.987,13.163
			c2.304,3.949,6.581,6.581,11.188,7.239c0.659,0,1.317,0,1.646,0c6.581,0,12.504-4.278,14.479-10.859l1.316-3.62l0.658,3.291
			c0.988,4.937,0,10.201-2.961,14.479l-11.847,18.098c-0.328,0.329-0.328,0.987-0.328,1.646v18.097c0,0.329,0,0.659,0.328,0.988
			l3.291,8.555l-39.159,3.949l2.304-15.795c0,0,0,0,0-0.329l1.646-18.1c0-0.656,0-1.314-0.329-1.645l-4.936-8.884
			C370.925,329.493,370.266,324.229,371.254,319.621L371.254,319.621z M305.441,415.708l66.471-24.681
			c0.658-0.329,1.316-0.987,1.646-1.645l1.645-4.607l41.792-3.949l6.582,6.252c4.277,3.949,7.568,9.216,9.543,14.809v0.33
			c2.961,8.226,8.227,15.136,15.135,20.402l24.68,17.768c6.582,4.608,14.15,7.898,22.049,9.214l10.857,1.646
			c-3.289,5.593-8.883,15.795-10.529,22.705l-8.885-0.988c-5.922-0.658-11.846-2.303-17.109-5.264
			c-44.424-24.681-73.381-45.081-77.331-54.953l-5.595,2.303c1.317,2.961,3.62,6.252,7.24,9.543
			c-16.454,3.29-63.51,12.174-78.976,10.859l-0.329,5.923c0.987,0,2.304,0,3.619,0c1.646,0,3.291,0,4.937,0l-0.987,5.594
			c-10.859-0.33-18.428-3.62-21.06-5.265l-0.988-18.429C299.846,419.984,302.15,416.694,305.441,415.708L305.441,415.708z
			 M266.612,516.071l30.932-6.91c0.987-0.329,1.975-0.987,2.303-1.974c3.291-8.557,4.608-17.44,3.949-26.325l-1.975-32.577
			c4.277,1.974,10.859,3.947,19.744,4.276l-5.595,32.577c-0.657,3.62-0.986,7.569-0.986,11.189v13.162
			c0,1.974-0.658,3.949-2.304,5.265c-1.316,1.316-3.291,2.305-5.265,2.305h-40.804c-0.329,0-0.329-0.329-0.329-0.329
			C266.283,516.401,266.612,516.401,266.612,516.071L266.612,516.071z"/>
		<g id="Page-1_2_">
			<g id="_x30_02---Warrior-Pose_2_">
				<path id="Shape_4_" fill="#FF7D7F" d="M242.919,522.324c-3.948,0-6.91,2.632-6.91,5.923l0,0c0,3.29,3.291,5.922,6.91,5.922
					H586.46c3.949,0,6.912-2.632,6.912-5.922c0-3.291-3.291-5.923-6.912-5.923h-47.385"/>
				<path id="Shape_1_" fill="#FF7D7F" d="M606.204,522.324c-3.291,0-5.922,2.632-5.922,5.923c0,3.29,2.631,5.922,5.922,5.922h5.924
					c3.289,0,5.924-2.632,5.924-5.922c0-3.291-2.635-5.923-5.924-5.923H606.204z"/>
			</g>
		</g>
	</g>
	<g>
		<path fill="#FF7D7F" d="M326.222,54.322l-0.904,11.547l-4.535,1.112l3.201-36.788l5.29-1.299l19.924,31.112l-4.686,1.15
			l-6.25-9.791L326.222,54.322z M336.515,48.163l-5.725-8.958c-1.3-2.031-2.299-3.922-3.285-5.764l-0.101,0.024
			c-0.01,2.14-0.057,4.34-0.204,6.567l-0.912,10.641L336.515,48.163z"/>
		<path fill="#FF7D7F" d="M353.378,59.3l-4.666-34.656l4.885-0.657l13.466,16.039c3.118,3.715,5.615,7.096,7.738,10.423l0.097-0.065
			c-1.035-4.573-1.705-8.775-2.432-14.174l-1.953-14.5l4.217-0.568l4.664,34.656l-4.523,0.609l-13.371-16.104
			c-2.936-3.531-5.781-7.179-8.035-10.697l-0.147,0.072c0.846,4.336,1.509,8.487,2.284,14.246l1.992,14.808L353.378,59.3z"/>
		<path fill="#FF7D7F" d="M391.722,44.153l-3.326,11.095l-4.667,0.129l10.908-35.282l5.445-0.151l12.896,34.623l-4.823,0.134
			l-4.038-10.891L391.722,44.153z M403.086,40.309l-3.701-9.966c-0.842-2.26-1.417-4.32-1.992-6.329l-0.104,0.003
			c-0.461,2.089-0.973,4.231-1.587,6.376L392.558,40.6L403.086,40.309z"/>
		<path fill="#FF7D7F" d="M417.217,54.753l2.693-34.861l4.914,0.379l9.811,18.5c2.27,4.286,4.002,8.114,5.383,11.811l0.107-0.044
			c-0.055-4.687,0.17-8.936,0.59-14.367l1.125-14.586l4.242,0.328l-2.693,34.86l-4.551-0.351l-9.703-18.544
			c-2.131-4.067-4.15-8.229-5.617-12.141l-0.16,0.04c-0.08,4.416-0.301,8.614-0.748,14.407l-1.15,14.896L417.217,54.753z"/>
		<path fill="#FF7D7F" d="M456.718,23.795c2.779,0.106,6.047,0.411,9.563,1.08c6.371,1.211,10.623,3.552,13.098,6.925
			c2.525,3.384,3.553,7.698,2.496,13.252c-1.066,5.605-3.672,9.862-7.482,12.411c-3.82,2.599-9.449,3.324-16.125,2.055
			c-3.158-0.602-5.779-1.258-7.973-1.939L456.718,23.795z M455.376,55.007c1.082,0.417,2.703,0.778,4.436,1.108
			c9.479,1.803,15.633-2.518,17.396-11.792c1.592-8.092-2.016-14.111-11.393-15.894c-2.291-0.436-4.063-0.562-5.283-0.53
			L455.376,55.007z"/>
		<path fill="#FF7D7F" d="M484.243,59.085c1.59,1.766,4.135,3.595,7.121,4.473c4.43,1.302,7.707-0.276,8.701-3.661
			c0.922-3.136-0.344-5.454-4.359-8.528c-4.904-3.55-7.455-7.383-6.064-12.111c1.537-5.226,7.008-7.835,13.529-5.918
			c3.434,1.01,5.688,2.538,6.932,3.823l-2.234,3.182c-0.92-0.919-2.865-2.573-5.902-3.466c-4.578-1.346-7.125,0.879-7.799,3.168
			c-0.922,3.136,0.666,5.279,4.768,8.432c5.029,3.858,7.111,7.445,5.662,12.372c-1.52,5.176-6.67,8.529-14.584,6.202
			c-3.234-0.951-6.49-2.937-7.932-4.657L484.243,59.085z"/>
		<path fill="#FF7D7F" d="M524.234,40.904l-5.463,13.569l15.688,6.315l5.463-13.569l4.232,1.705l-13.055,32.431l-4.236-1.705
			l6.123-15.206L517.3,58.13l-6.123,15.206l-4.186-1.686l13.057-32.431L524.234,40.904z"/>
		<path fill="#FF7D7F" d="M547.521,77.282l-8.373,8l-4.121-2.193l26.914-25.28l4.809,2.559l-5.898,36.468l-4.258-2.267l1.871-11.462
			L547.521,77.282z M559.296,79.555l1.707-10.491c0.387-2.38,0.902-4.456,1.396-6.485l-0.092-0.049
			c-1.434,1.588-2.936,3.197-4.531,4.758l-7.773,7.319L559.296,79.555z"/>
		<path fill="#FF7D7F" d="M564.46,99.109l19.621-28.934l4.078,2.766l-0.652,20.927c-0.154,4.847-0.547,9.03-1.182,12.924
			l0.115,0.016c2.275-4.097,4.576-7.675,7.633-12.183l8.209-12.106l3.521,2.387l-19.621,28.935l-3.779-2.562l0.77-20.912
			c0.166-4.587,0.477-9.203,1.143-13.327l-0.158-0.044c-2.26,3.794-4.531,7.33-7.793,12.138l-8.383,12.363L564.46,99.109z"/>
		<path fill="#FF7D7F" d="M616.685,98.523l-8.184-6.789l2.451-2.955l19.922,16.523l-2.449,2.955l-8.225-6.822l-19.869,23.957
			l-3.514-2.914L616.685,98.523z"/>
		<path fill="#FF7D7F" d="M619.755,127.863l-10.275,5.342l-3.346-3.258l32.908-16.75l3.9,3.801l-15.854,33.367l-3.455-3.367
			l5-10.483L619.755,127.863z M630.427,133.337l4.57-9.597c1.035-2.178,2.113-4.025,3.152-5.837l-0.074-0.072
			c-1.818,1.125-3.713,2.249-5.68,3.301l-9.512,4.856L630.427,133.337z"/>
		<path fill="#FF7D7F" d="M660.325,166.42c3.625-3.271,7.984-7.202,11.402-9.905l-0.098-0.121
			c-3.936,1.653-8.236,3.267-13.094,4.934l-17.066,5.881l-2.154-2.661l9.379-14.875c2.783-4.392,5.408-8.32,8.012-11.699
			l-0.064-0.081c-3.453,2.662-8.17,6.151-12.436,9.207l-12.236,8.712l-2.709-3.346l28.699-20.114l3.623,4.474l-9.383,15.28
			c-2.43,3.839-4.662,7.183-6.928,10.153l0.098,0.121c3.295-1.535,7.063-2.984,11.467-4.551l17.057-5.809l3.625,4.474
			l-25.793,23.702l-2.775-3.426L660.325,166.42z"/>
	</g>
</g>
</svg>
