<?xml version="1.0" encoding="utf-8"?>
<!-- Generator: Adobe Illustrator 16.0.0, SVG Export Plug-In . SVG Version: 6.00 Build 0)  -->
<!DOCTYPE svg PUBLIC "-//W3C//DTD SVG 1.1//EN" "http://www.w3.org/Graphics/SVG/1.1/DTD/svg11.dtd">
<svg version="1.1" id="logo-dark" xmlns="http://www.w3.org/2000/svg" xmlns:xlink="http://www.w3.org/1999/xlink" x="0px" y="0px"
	 width="92.25px" height="101.5px" viewBox="249.14 353.695 92.25 101.5" enable-background="new 249.14 353.695 92.25 101.5"
	 xml:space="preserve">
<g>
	<g>
		<g>
			<g>
				<path fill="#FFFFFF" d="M295.308,451.999c-11.076,0-22.153-4.216-30.586-12.649c-8.162-8.161-12.657-19.017-12.657-30.564
					s4.495-22.402,12.657-30.564c0.081-0.081,0.213-0.081,0.293,0c0.081,0.081,0.081,0.213,0,0.293
					c-16.691,16.692-16.691,43.852,0,60.542c16.705,16.704,43.884,16.704,60.587,0c0.081-0.081,0.213-0.081,0.293,0
					c0.081,0.082,0.081,0.213,0,0.294C317.463,447.783,306.386,451.999,295.308,451.999z"/>
			</g>
		</g>
		<g>
			<g>
				<path fill="#FFFFFF" d="M325.659,439.499c-0.054,0-0.105-0.02-0.147-0.06c-0.08-0.082-0.08-0.212,0-0.293
					c8.616-8.616,13.051-20.092,12.491-32.316c-0.004-0.115,0.083-0.213,0.198-0.217c0.114-0.007,0.211,0.083,0.217,0.197
					c0.273,5.974-0.648,11.813-2.738,17.357c-2.168,5.748-5.489,10.888-9.873,15.271
					C325.765,439.479,325.713,439.499,325.659,439.499z"/>
			</g>
		</g>
		<g>
			<g>
				<path fill="#FFFFFF" d="M264.779,378.619c-0.053,0-0.106-0.02-0.146-0.061c-0.082-0.081-0.082-0.212,0-0.293
					c4.343-4.344,9.373-7.621,14.947-9.74c0.107-0.041,0.227,0.014,0.268,0.12c0.041,0.107-0.013,0.228-0.12,0.269
					c-5.52,2.098-10.5,5.343-14.801,9.645C264.885,378.6,264.832,378.619,264.779,378.619z"/>
			</g>
		</g>
	</g>
	<g>
		<g>
			<path fill="#FFFFFF" d="M329.188,386.943c-0.268,0.179-0.58,0.179-0.759-0.09c-0.18-0.268-0.134-0.58,0.134-0.759
				c0.269-0.179,0.581-0.179,0.76,0.089C329.502,386.407,329.456,386.721,329.188,386.943z"/>
		</g>
	</g>
	<g>
		<g>
			<path fill="#FFFFFF" d="M332.316,391.098l-0.761-1.296c-0.268,0.224-0.356,0.581-0.178,0.894
				c0.134,0.179,0.268,0.313,0.492,0.357l-0.046,0.223c-0.269-0.044-0.492-0.223-0.625-0.49c-0.269-0.447-0.134-0.983,0.313-1.251
				c0.446-0.269,0.981-0.134,1.251,0.313C333.074,390.338,332.851,390.785,332.316,391.098z M332.405,390.785
				c0.313-0.179,0.357-0.536,0.178-0.805c-0.178-0.313-0.49-0.401-0.849-0.268L332.405,390.785z"/>
		</g>
	</g>
	<g>
		<g>
			<path fill="#FFFFFF" d="M333.522,391.589c-0.09-0.179-0.225-0.269-0.402-0.179c-0.357,0.179,0.313,0.982-0.269,1.295
				c-0.313,0.179-0.625-0.045-0.759-0.357c-0.135-0.223-0.179-0.491-0.09-0.759h0.224c-0.046,0.224,0,0.446,0.09,0.625
				c0.089,0.179,0.267,0.313,0.401,0.224c0.402-0.224-0.269-0.982,0.268-1.296c0.313-0.179,0.581,0.046,0.76,0.313
				c0.09,0.178,0.134,0.401,0.134,0.58h-0.224C333.61,391.901,333.566,391.723,333.522,391.589z"/>
		</g>
	</g>
	<g>
		<g>
			<path fill="#FFFFFF" d="M333.119,394.135c-0.135-0.089-0.225-0.179-0.313-0.313c-0.135-0.224-0.045-0.491,0.268-0.625
				l0.938-0.447l-0.134-0.223l0.179-0.09l0.135,0.223l0.445-0.223l0.135,0.223l-0.447,0.224l0.269,0.536l-0.179,0.09l-0.268-0.536
				l-0.894,0.446c-0.179,0.09-0.223,0.223-0.179,0.357c0.045,0.09,0.133,0.135,0.223,0.223L333.119,394.135z"/>
		</g>
	</g>
	<g>
		<g>
			<path fill="#FFFFFF" d="M335.754,395.877c0.223-0.09,0.268-0.313,0.135-0.625c-0.09-0.224-0.314-0.402-0.537-0.537l0.135-0.178
				c0.268,0.134,0.535,0.357,0.626,0.67c0.177,0.446,0.089,0.803-0.269,0.938c-0.224,0.09-0.536,0.045-0.893-0.089l-1.029-0.402
				l0.537,1.295l-0.223,0.09l-0.671-1.608l0.224-0.089l1.295,0.491C335.352,395.922,335.62,395.966,335.754,395.877z"/>
		</g>
	</g>
	<g>
		<g>
			<path fill="#FFFFFF" d="M336.156,398.646c-0.759,0.268-1.25,0.089-1.474-0.447c-0.18-0.536,0.089-0.982,0.848-1.251
				c0.759-0.268,1.251-0.089,1.474,0.447C337.183,397.932,336.871,398.378,336.156,398.646z M335.62,397.217
				c-0.625,0.224-0.894,0.535-0.714,0.938c0.133,0.401,0.535,0.491,1.16,0.268s0.85-0.536,0.715-0.938
				C336.648,397.082,336.245,396.994,335.62,397.217z"/>
		</g>
	</g>
	<g>
		<g>
			<path fill="#FFFFFF" d="M337.227,400.12c0.225-0.09,0.314-0.313,0.225-0.581c-0.045-0.223-0.269-0.446-0.491-0.58l0.179-0.179
				c0.268,0.179,0.49,0.446,0.58,0.715c0.135,0.446,0,0.804-0.356,0.893c-0.224,0.045-0.536-0.044-0.894-0.223l-0.982-0.536
				l0.402,1.34l-0.269,0.09l-0.491-1.653l0.223-0.044l1.207,0.625C336.826,400.12,337.05,400.165,337.227,400.12z"/>
		</g>
	</g>
	<g>
		<g>
			<path fill="#FFFFFF" d="M337.319,402.934c-0.76,0.179-1.252,0-1.43-0.58c-0.135-0.581,0.224-0.982,0.982-1.162
				c0.758-0.178,1.25,0,1.385,0.581C338.434,402.309,338.077,402.711,337.319,402.934z M336.96,401.415
				c-0.625,0.18-0.938,0.447-0.804,0.849c0.089,0.402,0.491,0.537,1.117,0.357c0.624-0.178,0.893-0.446,0.804-0.849
				C337.988,401.415,337.629,401.281,336.96,401.415z"/>
		</g>
	</g>
	<g>
		<g>
			<g>
				<path fill="#FFFFFF" d="M274.338,431.833h5.538c0.491,0,0.938-0.179,1.295-0.537c0.357-0.356,0.536-0.803,0.536-1.294v-1.788
					c0-0.446,0.045-0.938,0.134-1.384l1.072-6.208c3.306-0.313,8.441-1.34,9.514-1.563c2.367,1.966,6.431,4.377,9.111,5.852
					c0.804,0.446,1.698,0.714,2.636,0.849l6.923,0.715c0.894,0.088,1.742,0.446,2.412,0.938l0.268,0.224l-0.313,1.965l-0.759,0.223
					c-0.446,0.135-0.715,0.536-0.715,0.938c0,0.535,0.448,0.982,0.983,0.982h1.74c0.627,0,1.206-0.402,1.43-0.982l1.296-3.395
					c0.044-0.178,0.09-0.357,0.09-0.536c0-0.67-0.446-1.251-1.071-1.474l-1.832-0.58l-4.199-2.591
					c-0.76-0.492-1.652-0.805-2.546-0.938l-2.321-0.356c-0.939-0.135-1.832-0.537-2.637-1.072l-3.351-2.412
					c-0.804-0.581-1.429-1.43-1.785-2.367v-0.045c-0.313-0.894-0.849-1.697-1.52-2.322l-1.027-0.938l-0.535-1.43v-2.278l1.519-2.367
					c0.49-0.759,0.669-1.652,0.535-2.546l-0.357-2.01l0.225-0.625c1.92-0.357,2.68-2.368,2.724-2.457
					c0.045-0.134,0.09-0.269,0.134-0.401c0.134,0.044,0.269,0.044,0.447,0.044c0.49,0,0.982-0.179,1.385-0.491
					c0.982-0.76,1.161-2.188,0.401-3.172c-0.625-0.848-1.786-1.071-2.68-0.669c0-0.045-0.044-0.045-0.044-0.09l-0.045-0.044
					l2.144-6.879l1.965-1.742c0.224-0.179,0.358-0.447,0.358-0.76s-0.135-0.58-0.402-0.803c-0.223-0.18-0.536-0.27-0.85-0.18
					l-0.133,0.045l0.268-0.982c0.09-0.313,0.044-0.671-0.135-0.982c-0.178-0.313-0.49-0.492-0.803-0.581h-0.09
					c-0.492-0.09-1.027,0.134-1.25,0.581l-0.983,1.652c-0.18,0.313-0.313,0.715-0.357,1.072l-0.178,1.92l-2.547,6.074
					c-1.072-0.223-2.411,0.447-2.858,0.938c-0.626,0.67-0.983,1.652-1.072,2.01l-1.072,0.849c-0.179,0.135-0.223,0.357-0.089,0.536
					l0.447,0.759c-0.135,0.313-0.402,0.938-0.357,1.431c0.044,0.446,0.67,1.607,1.697,1.875l-0.134,0.313l-2.769,1.251
					c-0.983,0.446-1.743,1.384-1.965,2.456c-0.178,0.849-0.089,1.742,0.357,2.501l0.58,1.117l-0.178,2.322l-0.402,2.681
					c0,0.133,0,0.268,0.089,0.356l0.044,0.046l-0.089,0.178l-8.844,3.216c-0.804,0.269-1.34,1.027-1.295,1.876l0.446,7.816
					c0.045,1.028-0.089,2.054-0.402,3.037l-3.976,0.894c-0.402,0.09-0.669,0.446-0.669,0.849
					C273.489,431.432,273.891,431.833,274.338,431.833L274.338,431.833z M314.225,425.624c0.044,0,0.044,0.045,0.09,0.045
					l1.875,0.58c0.313,0.09,0.492,0.357,0.492,0.671c0,0.089,0,0.179-0.046,0.269l-1.294,3.395c-0.09,0.267-0.358,0.446-0.671,0.446
					h-1.741c-0.09,0-0.18-0.09-0.18-0.18c0-0.089,0.045-0.133,0.135-0.177l1.027-0.27c0.134-0.045,0.268-0.178,0.313-0.313
					l0.402-2.456c0.044-0.134-0.045-0.313-0.179-0.402l-0.492-0.356c-0.849-0.626-1.786-1.029-2.858-1.117l-4.914-0.536
					c0.225-0.805,0.939-2.145,1.52-3.037c0.804,0.134,1.519,0.402,2.189,0.804L314.225,425.624z M298.547,397.752
					c0,0-0.492,1.341-1.653,1.832l1.698-5.36l0,0C298.994,395.207,298.994,396.592,298.547,397.752z M301.003,394.537
					c0.491,0.625,0.358,1.519-0.269,2.01c-0.313,0.268-0.713,0.357-1.116,0.268c0.135-0.938,0.091-1.92-0.223-2.725
					C299.976,393.912,300.602,394.046,301.003,394.537z M299.261,385.916c0-0.045,0.046-0.09,0.046-0.134l0.178-1.966
					c0-0.268,0.089-0.491,0.225-0.715l0.981-1.652c0.089-0.134,0.224-0.178,0.357-0.178c0.045,0,0.045,0,0.089,0h0.09
					c0.135,0,0.223,0.089,0.268,0.178c0.045,0.09,0.091,0.224,0.045,0.313l-0.491,1.653c-0.045,0.134,0,0.313,0.089,0.401
					c0.09,0.09,0.269,0.135,0.402,0.135l0.85-0.224c0.089,0,0.134,0,0.134,0.045c0.044,0,0.044,0.044,0.044,0.134
					c0,0.045-0.044,0.089-0.044,0.134l0,0l-2.055,1.831c-0.046,0.045-0.09,0.135-0.135,0.179l-2.278,7.281l-3.082,9.826
					c-0.178,0.581-0.715,0.938-1.295,0.894c-0.357-0.045-0.714-0.268-0.893-0.581c-0.18-0.313-0.224-0.715-0.091-1.071l3.888-9.916
					L299.261,385.916z M295.599,392.438l-0.76,1.965c-0.446-0.49-0.893-0.938-1.161-1.25
					C293.991,392.84,294.884,392.348,295.599,392.438z M291.758,398.065c0-0.313,0.222-0.894,0.357-1.206
					c0.045-0.135,0.045-0.268,0-0.402l-0.357-0.625l0.848-0.67c0.089-0.045,0.134-0.134,0.134-0.224c0,0,0.179-0.581,0.492-1.161
					c0.357,0.357,0.849,0.894,1.296,1.385v0.045l-1.563,4.02C292.205,399.093,291.758,398.244,291.758,398.065L291.758,398.065z
					 M288.542,404.229c0.178-0.804,0.76-1.519,1.519-1.876l2.01-0.938l-0.224,0.626c-0.223,0.58-0.178,1.25,0.133,1.786
					c0.314,0.536,0.895,0.894,1.52,0.983c0.09,0,0.179,0,0.224,0c0.894,0,1.698-0.581,1.965-1.475l0.18-0.491l0.089,0.446
					c0.134,0.671,0,1.385-0.402,1.966l-1.607,2.456c-0.045,0.045-0.045,0.135-0.045,0.224v2.457c0,0.044,0,0.089,0.045,0.134
					l0.446,1.161l-5.315,0.536l0.313-2.145c0,0,0,0,0-0.044l0.223-2.457c0-0.089,0-0.179-0.045-0.224l-0.669-1.205
					C288.497,405.569,288.408,404.854,288.542,404.229L288.542,404.229z M279.609,417.271l9.022-3.35
					c0.089-0.045,0.179-0.134,0.223-0.223l0.224-0.625l5.673-0.537l0.894,0.849c0.581,0.536,1.027,1.251,1.296,2.011v0.045
					c0.402,1.115,1.115,2.054,2.055,2.769l3.349,2.412c0.895,0.625,1.921,1.071,2.993,1.251l1.475,0.223
					c-0.447,0.76-1.206,2.145-1.43,3.081l-1.206-0.133c-0.805-0.09-1.608-0.313-2.323-0.715c-6.03-3.351-9.96-6.119-10.497-7.459
					l-0.759,0.313c0.179,0.402,0.491,0.849,0.983,1.296c-2.234,0.446-8.621,1.652-10.721,1.474l-0.044,0.804
					c0.134,0,0.313,0,0.491,0c0.224,0,0.447,0,0.67,0l-0.134,0.76c-1.474-0.045-2.501-0.491-2.858-0.715l-0.134-2.501
					C278.849,417.853,279.161,417.406,279.609,417.271L279.609,417.271z M274.338,430.895l4.198-0.938
					c0.134-0.045,0.268-0.135,0.313-0.269c0.447-1.161,0.625-2.367,0.536-3.573l-0.268-4.422c0.581,0.269,1.474,0.537,2.68,0.581
					l-0.759,4.422c-0.089,0.492-0.134,1.027-0.134,1.518v1.788c0,0.269-0.089,0.535-0.313,0.715
					c-0.178,0.178-0.447,0.313-0.715,0.313h-5.538c-0.045,0-0.045-0.044-0.045-0.044
					C274.293,430.939,274.338,430.939,274.338,430.895L274.338,430.895z"/>
			</g>
			<g>
				<path fill="#FFFFFF" d="M279.876,431.885h-5.538c-0.474,0-0.898-0.422-0.945-0.941c-0.001-0.44,0.292-0.81,0.709-0.903
					l3.947-0.887c0.303-0.965,0.435-1.972,0.39-2.991l-0.446-7.814c-0.045-0.859,0.502-1.652,1.33-1.929l8.824-3.208l0.064-0.127
					l-0.019-0.019c-0.105-0.104-0.105-0.252-0.105-0.394l0.403-2.688l0.177-2.305l-0.573-1.104
					c-0.426-0.723-0.555-1.624-0.363-2.536c0.225-1.081,0.99-2.036,1.994-2.493l2.751-1.242l0.104-0.24
					c-1.061-0.313-1.637-1.496-1.678-1.904c-0.045-0.492,0.216-1.115,0.352-1.431l-0.434-0.737c-0.07-0.092-0.099-0.207-0.08-0.32
					c0.021-0.109,0.085-0.21,0.183-0.283l1.057-0.838c0.091-0.347,0.445-1.335,1.079-2.016c0.382-0.418,1.443-0.998,2.447-0.998
					c0.146,0,0.286,0.013,0.419,0.037l2.526-6.028l0.178-1.913c0.046-0.365,0.182-0.773,0.363-1.093l0.983-1.653
					c0.19-0.379,0.614-0.625,1.079-0.625c0.076,0,0.152,0.007,0.227,0.02h0.086l0.008,0.001c0.268,0.076,0.628,0.243,0.835,0.605
					c0.183,0.319,0.232,0.692,0.139,1.022l-0.243,0.889l0.043-0.014c0.312-0.09,0.645-0.016,0.897,0.188
					c0.28,0.233,0.422,0.517,0.422,0.844c0,0.322-0.134,0.605-0.378,0.801l-1.951,1.73l-2.131,6.834l0.037,0.039v0.021
					c0.006,0.007,0.013,0.014,0.021,0.021c0.274-0.115,0.582-0.177,0.891-0.177c0.722,0,1.396,0.331,1.805,0.886
					c0.778,1.008,0.595,2.464-0.413,3.242c-0.416,0.324-0.92,0.503-1.416,0.503c-0.159,0-0.288,0-0.413-0.033l-0.118,0.354
					c-0.006,0.012-0.01,0.021-0.017,0.037c-0.271,0.631-1.078,2.127-2.719,2.448l-0.209,0.585l0.355,1.996
					c0.138,0.927-0.05,1.819-0.544,2.584l-1.511,2.354v2.254l0.528,1.408l1.019,0.93c0.691,0.646,1.222,1.457,1.533,2.344
					l0.002,0.018v0.035c0.362,0.945,0.989,1.773,1.766,2.334l3.351,2.413c0.872,0.581,1.751,0.939,2.611,1.062l2.323,0.358
					c0.94,0.141,1.828,0.468,2.566,0.946l4.198,2.59l1.818,0.574c0.666,0.237,1.109,0.85,1.109,1.523
					c0,0.186-0.045,0.37-0.091,0.548l-1.298,3.401c-0.229,0.598-0.836,1.017-1.479,1.017h-1.74c-0.562,0-1.035-0.475-1.035-1.035
					c0-0.449,0.31-0.855,0.752-0.988l0.729-0.214l0.302-1.903l-0.245-0.205c-0.699-0.513-1.547-0.842-2.384-0.926l-6.923-0.715
					c-0.999-0.142-1.891-0.43-2.655-0.855c-1.433-0.786-6.313-3.53-9.102-5.84c-0.416,0.087-5.938,1.219-9.456,1.556l-1.065,6.17
					c-0.085,0.429-0.133,0.917-0.133,1.374v1.788c0,0.511-0.19,0.972-0.551,1.332C280.848,431.693,280.387,431.885,279.876,431.885z
					 M295.506,391.641c-0.974,0-2.003,0.561-2.37,0.965c-0.631,0.677-0.979,1.664-1.06,1.988l-0.005,0.018l-1.085,0.859
					c-0.078,0.059-0.129,0.136-0.143,0.22c-0.017,0.085,0.007,0.169,0.063,0.244l0.461,0.787l-0.009,0.024
					c-0.129,0.301-0.397,0.926-0.354,1.404c0.043,0.429,0.659,1.569,1.659,1.83l0.059,0.016l-0.166,0.387l-2.788,1.259
					c-0.975,0.443-1.717,1.371-1.936,2.42c-0.187,0.887-0.062,1.762,0.352,2.464l0.59,1.133l-0.003,0.015l-0.178,2.323l-0.403,2.684
					c0.001,0.119,0.001,0.238,0.075,0.313l0.071,0.07l-0.116,0.231l-0.019,0.007l-8.843,3.216c-0.787,0.263-1.305,1.013-1.262,1.824
					l0.447,7.816c0.045,1.043-0.091,2.07-0.404,3.056l-0.009,0.03l-0.029,0.005l-3.975,0.894c-0.371,0.083-0.629,0.411-0.629,0.798
					c0.042,0.462,0.419,0.841,0.841,0.841h5.538c0.482,0,0.918-0.18,1.259-0.521s0.521-0.774,0.521-1.258v-1.788
					c0-0.463,0.048-0.958,0.135-1.395l1.079-6.245l0.04-0.004c3.631-0.344,9.45-1.55,9.508-1.563l0.024-0.005l0.019,0.017
					c2.78,2.306,7.672,5.057,9.104,5.845c0.754,0.418,1.635,0.702,2.617,0.843l6.922,0.714c0.855,0.086,1.721,0.422,2.438,0.948
					l0.293,0.244l-0.322,2.028l-0.791,0.231c-0.398,0.12-0.678,0.484-0.678,0.888c0,0.504,0.426,0.931,0.932,0.931h1.74
					c0.6,0,1.167-0.39,1.382-0.948l1.296-3.396c0.043-0.174,0.086-0.344,0.086-0.517c0-0.631-0.417-1.203-1.038-1.425l-1.829-0.579
					l-4.211-2.597c-0.727-0.471-1.601-0.792-2.526-0.931l-2.323-0.357c-0.875-0.125-1.768-0.488-2.656-1.08l-3.352-2.413
					c-0.794-0.574-1.436-1.423-1.805-2.392l-0.004-0.018v-0.036c-0.305-0.868-0.823-1.661-1.501-2.294l-1.04-0.957l-0.539-1.448
					v-2.293l1.525-2.38c0.482-0.743,0.663-1.61,0.529-2.511l-0.36-2.022l0.239-0.666l0.029-0.006
					c1.611-0.299,2.404-1.772,2.672-2.393c0.007-0.019,0.013-0.03,0.015-0.035l0.148-0.445l0.049,0.017
					c0.127,0.042,0.253,0.042,0.431,0.042c0.474,0,0.954-0.171,1.353-0.48c0.962-0.743,1.138-2.134,0.394-3.099
					c-0.391-0.528-1.033-0.844-1.722-0.844c-0.313,0-0.621,0.065-0.897,0.189l-0.072,0.033v-0.08
					c-0.016-0.017-0.035-0.036-0.042-0.065l-0.055-0.055l2.158-6.922l0.011-0.01l1.965-1.742c0.221-0.176,0.34-0.432,0.34-0.721
					c0-0.299-0.125-0.549-0.383-0.764c-0.227-0.181-0.529-0.246-0.802-0.168l-0.224,0.074l0.294-1.077
					c0.087-0.304,0.04-0.647-0.13-0.943c-0.188-0.328-0.519-0.481-0.766-0.554h-0.082c-0.077-0.014-0.147-0.02-0.217-0.02
					c-0.427,0-0.814,0.225-0.988,0.571l-0.984,1.655c-0.176,0.308-0.306,0.701-0.35,1.053l-0.183,1.935l-2.563,6.114l-0.042-0.009
					C295.808,391.656,295.659,391.641,295.506,391.641z M314.671,431.081h-1.741c-0.118,0-0.231-0.113-0.231-0.231
					c0-0.126,0.079-0.183,0.163-0.224l1.037-0.272c0.115-0.038,0.238-0.161,0.276-0.279l0.399-2.448
					c0.038-0.113-0.035-0.271-0.154-0.351l-0.494-0.358c-0.896-0.662-1.824-1.023-2.833-1.107l-4.974-0.542l0.016-0.059
					c0.224-0.809,0.937-2.147,1.524-3.052l0.02-0.028l0.032,0.006c0.797,0.132,1.519,0.396,2.209,0.811l4.321,2.629
					c0.034,0.005,0.054,0.024,0.065,0.036h0.008l0.014,0.01l1.877,0.58c0.321,0.091,0.528,0.373,0.528,0.72
					c0,0.094,0,0.19-0.051,0.29l-1.293,3.391C315.295,430.888,315.006,431.081,314.671,431.081z M306.252,425.177l4.852,0.529
					c1.027,0.086,1.971,0.455,2.884,1.127l0.491,0.357c0.141,0.094,0.254,0.292,0.197,0.46l-0.399,2.449
					c-0.054,0.157-0.198,0.303-0.349,0.353l-1.03,0.27c-0.07,0.037-0.095,0.068-0.095,0.128c0,0.062,0.066,0.128,0.127,0.128h1.741
					c0.289,0,0.539-0.166,0.621-0.411l1.296-3.397c0.041-0.082,0.041-0.164,0.041-0.249c0-0.302-0.173-0.54-0.453-0.62l-1.871-0.579
					c-0.037-0.003-0.061-0.025-0.072-0.038h-0.015l-0.021-0.014l-4.332-2.635c-0.667-0.4-1.366-0.659-2.137-0.792
					C307.163,423.117,306.488,424.383,306.252,425.177z M279.876,431.081h-5.538c-0.063,0-0.097-0.049-0.097-0.096
					c0-0.045,0.024-0.069,0.037-0.082v-0.042l0.048-0.017l4.199-0.938c0.063-0.022,0.227-0.091,0.275-0.234
					c0.443-1.154,0.623-2.35,0.533-3.553l-0.273-4.51l0.079,0.036c0.513,0.237,1.392,0.529,2.66,0.576l0.06,0.002l-0.77,4.48
					c-0.085,0.474-0.133,1.009-0.133,1.509v1.788c0,0.315-0.118,0.583-0.332,0.754C280.425,430.955,280.138,431.081,279.876,431.081
					z M274.38,430.939c-0.008,0.017-0.02,0.028-0.028,0.038h-0.016h5.54c0.235,0,0.495-0.115,0.678-0.299
					c0.193-0.154,0.298-0.394,0.298-0.677v-1.788c0-0.506,0.047-1.048,0.135-1.526l0.749-4.363c-1.192-0.052-2.04-0.318-2.562-0.548
					l0.263,4.337c0.09,1.219-0.09,2.428-0.54,3.595c-0.043,0.13-0.169,0.239-0.345,0.298L274.38,430.939z M305.42,425.235
					l-1.252-0.141c-0.876-0.097-1.665-0.339-2.342-0.721c-6.075-3.375-9.891-6.079-10.498-7.437l-0.664,0.273
					c0.199,0.424,0.518,0.837,0.949,1.229l0.075,0.069l-0.101,0.02c-1.247,0.25-7.599,1.493-10.244,1.493
					c-0.162,0-0.309-0.004-0.437-0.014l-0.038,0.696h1.167l-0.152,0.864l-0.045-0.001c-1.433-0.044-2.487-0.475-2.884-0.723
					l-0.023-0.015l-0.136-2.528c0-0.48,0.342-0.943,0.796-1.079l9.019-3.35c0.075-0.037,0.156-0.118,0.196-0.197l0.232-0.65
					l0.033-0.004l5.696-0.538l0.911,0.865c0.565,0.522,1.03,1.243,1.308,2.03l0.004,0.018v0.035
					c0.388,1.072,1.091,2.019,2.034,2.737l3.348,2.411c0.915,0.641,1.943,1.07,2.971,1.241l1.55,0.234l-0.039,0.066
					c-0.351,0.596-1.188,2.085-1.423,3.067L305.42,425.235z M291.385,416.803l0.019,0.049c0.521,1.299,4.436,4.078,10.475,7.433
					c0.664,0.374,1.438,0.612,2.302,0.707l1.162,0.13c0.232-0.93,0.949-2.238,1.385-2.985l-1.398-0.212
					c-1.044-0.174-2.087-0.609-3.015-1.26l-3.351-2.412c-0.962-0.733-1.679-1.699-2.073-2.794l-0.003-0.017v-0.036
					c-0.271-0.769-0.727-1.472-1.278-1.981l-0.877-0.832l-5.616,0.53l-0.213,0.595c-0.052,0.105-0.149,0.201-0.249,0.252
					l-9.028,3.353c-0.415,0.124-0.725,0.544-0.725,0.979l0.132,2.472c0.4,0.241,1.404,0.641,2.765,0.69l0.115-0.653h-1.154
					l0.051-0.913l0.054,0.005c0.137,0.012,0.299,0.018,0.481,0.018c2.572,0,8.673-1.183,10.125-1.471
					c-0.42-0.396-0.729-0.814-0.921-1.243l-0.021-0.049L291.385,416.803z M289.016,412.283l0.322-2.21v-0.037l0.223-2.462
					c0-0.068,0-0.152-0.029-0.182l-0.008-0.012l-0.671-1.205c-0.378-0.547-0.511-1.262-0.363-1.957
					c0.183-0.816,0.775-1.549,1.548-1.912l2.122-0.99l-0.265,0.742c-0.22,0.573-0.171,1.225,0.13,1.742
					c0.297,0.51,0.852,0.868,1.481,0.958l0.216-0.001c0.889,0,1.658-0.577,1.916-1.437l0.243-0.669l0.125,0.629
					c0.14,0.696-0.01,1.427-0.41,2.005l-1.606,2.456c-0.037,0.037-0.037,0.121-0.037,0.194v2.457c0,0.044,0.002,0.069,0.029,0.097
					l0.012,0.019l0.471,1.225l-0.066,0.007L289.016,412.283z M289.611,407.325c0.055,0.061,0.055,0.159,0.055,0.254l-0.224,2.462
					v0.039l-0.304,2.086l5.182-0.522l-0.419-1.088c-0.051-0.058-0.051-0.118-0.051-0.162v-2.457c0-0.099,0-0.2,0.059-0.26
					l1.602-2.448c0.384-0.557,0.528-1.258,0.395-1.927l-0.054-0.265l-0.114,0.316c-0.27,0.901-1.081,1.509-2.015,1.509h-0.224
					c-0.668-0.096-1.25-0.473-1.563-1.009c-0.317-0.545-0.368-1.229-0.137-1.831l0.181-0.508l-1.898,0.886
					c-0.744,0.351-1.315,1.056-1.489,1.84c-0.144,0.668-0.016,1.353,0.349,1.881L289.611,407.325z M293.776,404.106
					c-0.033,0-0.066-0.001-0.101-0.004c-0.386-0.048-0.753-0.286-0.936-0.606c-0.192-0.338-0.228-0.756-0.093-1.116l3.887-9.917
					l2.677-6.559c0.003-0.029,0.016-0.055,0.027-0.078c0.008-0.016,0.017-0.034,0.017-0.044l0.179-1.97
					c0-0.242,0.07-0.471,0.231-0.737l0.982-1.652c0.088-0.134,0.227-0.204,0.401-0.204h0.179c0.132,0,0.249,0.077,0.314,0.207
					c0.043,0.084,0.104,0.242,0.045,0.359l-0.489,1.645c-0.036,0.111-0.001,0.271,0.078,0.351c0.075,0.077,0.236,0.117,0.358,0.118
					l0.855-0.223c0.075,0,0.15,0,0.177,0.053c0.053,0.025,0.053,0.103,0.053,0.178c0,0.034-0.014,0.064-0.026,0.09
					c-0.009,0.016-0.019,0.034-0.019,0.044v0.022l-2.071,1.848c-0.017,0.017-0.038,0.049-0.059,0.08
					c-0.02,0.03-0.041,0.063-0.064,0.087l-2.273,7.269l-3.082,9.827C294.851,403.731,294.35,404.106,293.776,404.106z
					 M301.048,381.322c-0.14,0-0.245,0.053-0.314,0.156l-0.98,1.65c-0.149,0.249-0.217,0.461-0.217,0.688l-0.178,1.971
					c0,0.029-0.016,0.059-0.028,0.086c-0.008,0.016-0.017,0.033-0.017,0.043l-0.005,0.02l-2.679,6.566l-3.886,9.915
					c-0.124,0.331-0.093,0.716,0.087,1.027c0.166,0.293,0.501,0.511,0.853,0.555c0.03,0.003,0.062,0.004,0.092,0.004
					c0.529,0,0.99-0.346,1.148-0.861l3.082-9.827l2.281-7.292l0.01-0.009c0.019-0.019,0.039-0.051,0.061-0.082
					c0.023-0.035,0.047-0.07,0.072-0.097l2.043-1.82c0.005-0.024,0.016-0.046,0.025-0.064c0.008-0.017,0.017-0.034,0.017-0.044
					c0-0.031,0-0.066-0.003-0.084l-0.036-0.003l-0.004-0.037c-0.017-0.003-0.048-0.003-0.077-0.003l-0.855,0.224
					c-0.14,0-0.337-0.047-0.438-0.149c-0.106-0.107-0.151-0.307-0.102-0.455l0.491-1.651c0.036-0.073,0.001-0.188-0.042-0.274
					c-0.023-0.045-0.089-0.15-0.222-0.15H301.048z M296.811,399.676l1.774-5.604l0.055,0.134c0.415,1.016,0.398,2.416-0.044,3.566
					c-0.006,0.013-0.513,1.366-1.682,1.86L296.811,399.676z M298.597,394.381l-1.617,5.107c1.052-0.51,1.514-1.74,1.519-1.754
					C298.912,396.658,298.948,395.36,298.597,394.381z M292.997,399.285l-0.042-0.008c-0.78-0.138-1.25-1.006-1.25-1.212
					c0-0.346,0.253-0.973,0.361-1.227c0.04-0.118,0.04-0.243-0.001-0.365l-0.375-0.654l0.884-0.698
					c0.074-0.038,0.113-0.104,0.113-0.183l0.003-0.015c0.002-0.006,0.184-0.593,0.495-1.171l0.034-0.062l0.049,0.049
					c0.354,0.355,0.832,0.877,1.297,1.387l0.014,0.016l-0.005,0.083L292.997,399.285z M291.825,395.846l0.335,0.586
					c0.052,0.153,0.052,0.3,0.004,0.444c-0.085,0.197-0.355,0.854-0.355,1.189c0,0.14,0.404,0.947,1.123,1.103l1.543-3.971v-0.016
					c-0.437-0.48-0.886-0.97-1.23-1.317c-0.269,0.515-0.433,1.019-0.452,1.083c-0.004,0.113-0.064,0.213-0.163,0.261
					L291.825,395.846z M299.918,396.9c-0.102,0-0.207-0.012-0.311-0.035l-0.047-0.01l0.008-0.049
					c0.143-1.005,0.063-1.963-0.221-2.697l-0.021-0.053l0.055-0.016c0.167-0.053,0.338-0.078,0.507-0.078
					c0.459,0,0.87,0.191,1.155,0.541c0.246,0.313,0.351,0.701,0.297,1.096c-0.055,0.39-0.258,0.74-0.572,0.988
					C300.531,396.791,300.237,396.9,299.918,396.9z M299.677,396.773c0.376,0.07,0.744-0.025,1.024-0.266
					c0.297-0.232,0.485-0.56,0.535-0.923c0.051-0.366-0.047-0.727-0.273-1.017c-0.266-0.323-0.647-0.502-1.075-0.502
					c-0.141,0-0.283,0.02-0.424,0.058C299.736,394.855,299.811,395.793,299.677,396.773z M294.859,394.5l-0.057-0.063
					c-0.201-0.221-0.407-0.438-0.587-0.628c-0.23-0.242-0.428-0.451-0.575-0.624l-0.032-0.036l0.034-0.034
					c0.31-0.311,1.102-0.74,1.78-0.74c0.062,0,0.125,0.004,0.184,0.011l0.065,0.009L294.859,394.5z M293.749,393.156
					c0.144,0.163,0.328,0.357,0.54,0.582c0.164,0.174,0.349,0.367,0.531,0.567l0.706-1.823c-0.034-0.003-0.069-0.004-0.104-0.004
					C294.795,392.479,294.069,392.861,293.749,393.156z"/>
			</g>
		</g>
		<g id="Page-1_1_">
			<g id="_x30_02---Warrior-Pose_1_">
				<g id="Shape_3_">
					<g>
						<path fill="#FFFFFF" d="M271.122,431.743c-0.536,0-0.938,0.357-0.938,0.805l0,0c0,0.446,0.446,0.805,0.938,0.805h46.631
							c0.536,0,0.938-0.358,0.938-0.805c0-0.447-0.446-0.805-0.938-0.805h-6.431"/>
					</g>
				</g>
				<g id="Shape_2_">
					<g>
						<path fill="#FFFFFF" d="M320.433,431.743c-0.445,0-0.804,0.357-0.804,0.805c0,0.446,0.358,0.805,0.804,0.805h0.805
							c0.446,0,0.804-0.358,0.804-0.805c0-0.447-0.357-0.805-0.804-0.805H320.433z"/>
					</g>
				</g>
			</g>
		</g>
	</g>
	<g>
		<g>
			<path fill="#FFFFFF" d="M282.429,368.218l-0.123,1.567l-0.615,0.15l0.435-4.992l0.718-0.177l2.704,4.224l-0.635,0.155
				l-0.848-1.329L282.429,368.218z M283.825,367.383l-0.777-1.217c-0.176-0.275-0.312-0.532-0.446-0.782l-0.014,0.003
				c-0.001,0.291-0.008,0.59-0.027,0.892l-0.125,1.444L283.825,367.383z"/>
			<path fill="#FFFFFF" d="M281.633,370.004l0.444-5.103l0.79-0.194l2.763,4.315l-0.742,0.183l-0.848-1.329l-1.563,0.384
				l-0.123,1.567L281.633,370.004z M282.174,364.984l-0.424,4.885l0.508-0.125l0.123-1.567l1.707-0.419l0.848,1.328l0.53-0.13
				l-2.646-4.13L282.174,364.984z M282.38,367.79l0.13-1.516c0.017-0.262,0.025-0.544,0.026-0.888l0.001-0.041l0.092-0.021
				l0.045,0.085c0.125,0.233,0.253,0.474,0.417,0.729l0.816,1.276L282.38,367.79z M282.64,365.563
				c-0.003,0.27-0.012,0.501-0.027,0.72l-0.118,1.373l1.248-0.306l-0.738-1.155C282.864,365.974,282.749,365.765,282.64,365.563z"/>
		</g>
		<g>
			<path fill="#FFFFFF" d="M286.115,368.894l-0.632-4.702l0.662-0.09l1.827,2.177c0.423,0.504,0.762,0.963,1.05,1.415l0.013-0.009
				c-0.141-0.621-0.23-1.191-0.329-1.924l-0.265-1.968l0.572-0.076l0.633,4.702l-0.614,0.083l-1.814-2.186
				c-0.398-0.479-0.785-0.975-1.09-1.452l-0.021,0.01c0.115,0.589,0.205,1.151,0.309,1.933l0.271,2.01L286.115,368.894z"/>
			<path fill="#FFFFFF" d="M286.07,368.952l-0.646-4.806l0.742-0.1l1.846,2.198c0.354,0.423,0.657,0.823,0.921,1.218
				c-0.117-0.559-0.198-1.09-0.279-1.695l-0.271-2.02l0.675-0.09l0.647,4.806l-0.694,0.093l-1.833-2.208
				c-0.415-0.497-0.729-0.911-0.981-1.284c0.097,0.516,0.178,1.036,0.271,1.735l0.278,2.062L286.07,368.952z M285.541,364.235
				l0.619,4.601l0.47-0.063l-0.264-1.958c-0.107-0.788-0.196-1.347-0.31-1.931l-0.008-0.038l0.098-0.049l0.023,0.039
				c0.268,0.415,0.612,0.875,1.088,1.447l1.795,2.163l0.535-0.071l-0.619-4.601l-0.469,0.063l0.258,1.916
				c0.091,0.687,0.183,1.275,0.328,1.919l0.007,0.034l-0.085,0.059l-0.029-0.045c-0.291-0.457-0.633-0.918-1.045-1.409l-1.81-2.155
				L285.541,364.235z"/>
		</g>
		<g>
			<path fill="#FFFFFF" d="M291.316,366.838l-0.451,1.506l-0.633,0.018l1.479-4.789l0.738-0.021l1.753,4.698l-0.655,0.02
				l-0.549-1.479L291.316,366.838z M292.858,366.315l-0.503-1.353c-0.114-0.307-0.191-0.586-0.271-0.859l-0.014,0.001
				c-0.063,0.284-0.133,0.574-0.214,0.866l-0.427,1.385L292.858,366.315z"/>
			<path fill="#FFFFFF" d="M290.16,368.415l1.512-4.894l0.813-0.022l1.79,4.801l-0.764,0.022l-0.549-1.479l-1.608,0.045
				l-0.451,1.506L290.16,368.415z M291.749,363.623l-1.447,4.684l0.523-0.014l0.452-1.506l1.756-0.049l0.549,1.478l0.545-0.016
				l-1.714-4.596L291.749,363.623z M291.358,366.409l0.447-1.454c0.071-0.248,0.139-0.522,0.214-0.861l0.01-0.039l0.094-0.004
				l0.028,0.098c0.072,0.253,0.147,0.514,0.253,0.797l0.527,1.42L291.358,366.409z M292.083,364.286
				c-0.061,0.266-0.118,0.491-0.178,0.698l-0.405,1.316l1.285-0.035l-0.479-1.284C292.214,364.735,292.147,364.507,292.083,364.286z
				"/>
		</g>
		<g>
			<path fill="#FFFFFF" d="M294.781,368.276l0.366-4.731l0.665,0.052l1.332,2.511c0.309,0.581,0.543,1.102,0.73,1.603l0.015-0.006
				c-0.007-0.636,0.023-1.213,0.08-1.95l0.152-1.979l0.576,0.044l-0.366,4.731l-0.616-0.048l-1.317-2.517
				c-0.289-0.553-0.563-1.117-0.763-1.648l-0.021,0.006c-0.01,0.6-0.04,1.169-0.102,1.955l-0.156,2.021L294.781,368.276z"/>
			<path fill="#FFFFFF" d="M298.379,368.606l-0.696-0.055l-1.331-2.542c-0.301-0.574-0.523-1.045-0.689-1.461
				c-0.015,0.527-0.045,1.053-0.099,1.754l-0.159,2.073l-0.68-0.052l0.373-4.835l0.747,0.058l0.014,0.025l1.332,2.512
				c0.258,0.486,0.47,0.941,0.646,1.383c0.002-0.57,0.034-1.106,0.082-1.717l0.155-2.031l0.68,0.053L298.379,368.606z
				 M297.746,368.453l0.538,0.041l0.358-4.627l-0.473-0.037l-0.148,1.928c-0.055,0.691-0.089,1.288-0.08,1.945v0.035l-0.096,0.04
				l-0.02-0.05c-0.189-0.508-0.429-1.03-0.729-1.597l-1.318-2.485l-0.586-0.046l-0.356,4.628l0.471,0.036l0.152-1.97
				c0.062-0.79,0.091-1.355,0.102-1.951l0.001-0.041l0.104-0.025l0.016,0.043c0.174,0.46,0.415,0.981,0.761,1.642L297.746,368.453z"
				/>
		</g>
		<g>
			<path fill="#FFFFFF" d="M300.143,364.074c0.377,0.014,0.82,0.056,1.298,0.146c0.863,0.164,1.441,0.481,1.776,0.939
				c0.344,0.46,0.482,1.045,0.34,1.799c-0.145,0.761-0.499,1.339-1.016,1.686c-0.519,0.353-1.283,0.451-2.189,0.278
				c-0.429-0.081-0.783-0.171-1.082-0.263L300.143,364.074z M299.96,368.311c0.147,0.057,0.367,0.105,0.602,0.15
				c1.286,0.244,2.122-0.342,2.362-1.601c0.215-1.099-0.273-1.915-1.547-2.157c-0.312-0.06-0.552-0.076-0.717-0.072L299.96,368.311z
				"/>
			<path fill="#FFFFFF" d="M301.178,369.058c-0.262,0-0.543-0.028-0.835-0.084c-0.405-0.076-0.771-0.165-1.088-0.265l-0.045-0.014
				l0.889-4.675l0.046,0.001c0.44,0.018,0.88,0.066,1.305,0.148c0.865,0.164,1.457,0.479,1.811,0.96
				c0.368,0.495,0.485,1.113,0.348,1.839c-0.145,0.768-0.504,1.361-1.037,1.719C302.208,368.933,301.74,369.058,301.178,369.058z
				 M299.33,368.623c0.303,0.093,0.65,0.176,1.032,0.249c0.285,0.055,0.56,0.082,0.815,0.082c0.541,0,0.99-0.119,1.334-0.353
				c0.51-0.342,0.854-0.912,0.994-1.652c0.134-0.705,0.027-1.28-0.33-1.758c-0.337-0.46-0.908-0.76-1.746-0.92
				c-0.405-0.077-0.825-0.126-1.246-0.145L299.33,368.623z M301.108,368.567L301.108,368.567c-0.176,0-0.362-0.019-0.555-0.056
				c-0.293-0.055-0.482-0.103-0.611-0.152l-0.041-0.016l0.716-3.764l0.092-0.002c0.134,0,0.36,0.014,0.679,0.074
				c0.637,0.121,1.098,0.386,1.369,0.786c0.258,0.38,0.33,0.862,0.219,1.432C302.766,367.965,302.103,368.567,301.108,368.567z
				 M300.019,368.277c0.161,0.055,0.39,0.102,0.554,0.133c0.186,0.036,0.367,0.054,0.535,0.054c0.954,0,1.563-0.558,1.766-1.612
				c0.106-0.543,0.039-0.998-0.203-1.354c-0.254-0.377-0.693-0.627-1.304-0.743c-0.31-0.059-0.529-0.071-0.658-0.071h-0.006
				L300.019,368.277z"/>
		</g>
		<g>
			<path fill="#FFFFFF" d="M303.874,368.863c0.216,0.239,0.562,0.488,0.968,0.607c0.602,0.177,1.045-0.038,1.18-0.497
				c0.125-0.427-0.047-0.74-0.592-1.157c-0.666-0.482-1.012-1.002-0.824-1.645c0.209-0.709,0.952-1.063,1.836-0.803
				c0.467,0.137,0.772,0.344,0.941,0.519l-0.303,0.432c-0.125-0.124-0.389-0.349-0.801-0.47c-0.621-0.183-0.967,0.119-1.059,0.43
				c-0.125,0.426,0.091,0.717,0.646,1.145c0.684,0.523,0.967,1.01,0.77,1.679c-0.207,0.702-0.904,1.157-1.979,0.843
				c-0.439-0.13-0.882-0.398-1.077-0.632L303.874,368.863z"/>
			<path fill="#FFFFFF" d="M305.315,370.099c-0.211,0-0.437-0.035-0.671-0.104c-0.431-0.126-0.894-0.398-1.102-0.647l-0.024-0.03
				l0.35-0.537l0.046,0.049c0.241,0.269,0.594,0.49,0.942,0.592c0.135,0.04,0.264,0.061,0.383,0.061c0.369,0,0.637-0.19,0.733-0.521
				c0.116-0.395-0.039-0.693-0.574-1.102c-0.753-0.546-1.021-1.086-0.841-1.699c0.168-0.571,0.674-0.926,1.321-0.926
				c0.187,0,0.382,0.029,0.579,0.087c0.545,0.16,0.838,0.401,0.964,0.532l0.028,0.031l-0.363,0.518l-0.043-0.044
				c-0.146-0.147-0.403-0.347-0.779-0.457c-0.119-0.036-0.234-0.054-0.34-0.054c-0.386,0-0.589,0.232-0.654,0.449
				c-0.107,0.373,0.045,0.638,0.631,1.088c0.74,0.568,0.977,1.087,0.786,1.734C306.507,369.731,305.994,370.099,305.315,370.099z
				 M303.647,369.309c0.207,0.228,0.63,0.47,1.025,0.586c0.226,0.066,0.441,0.1,0.643,0.1c0.63,0,1.105-0.338,1.273-0.906
				c0.178-0.607-0.041-1.077-0.752-1.623c-0.539-0.413-0.803-0.728-0.665-1.199c0.074-0.253,0.312-0.523,0.753-0.523
				c0.115,0,0.24,0.02,0.369,0.058c0.362,0.106,0.619,0.29,0.779,0.44l0.243-0.347c-0.133-0.127-0.406-0.333-0.888-0.475
				c-0.188-0.056-0.373-0.083-0.55-0.083c-0.599,0-1.067,0.326-1.222,0.852c-0.166,0.565,0.089,1.069,0.804,1.586
				c0.577,0.441,0.742,0.771,0.612,1.215c-0.112,0.378-0.416,0.596-0.834,0.596c-0.129,0-0.268-0.021-0.412-0.064
				c-0.35-0.102-0.69-0.31-0.944-0.572L303.647,369.309z"/>
		</g>
		<g>
			<path fill="#FFFFFF" d="M309.303,366.395l-0.742,1.842l2.131,0.856l0.74-1.842l0.575,0.23l-1.771,4.404l-0.575-0.231l0.831-2.065
				l-2.13-0.856l-0.831,2.064l-0.567-0.229l1.771-4.403L309.303,366.395z"/>
			<path fill="#FFFFFF" d="M310.265,371.953l-0.672-0.271l0.831-2.064l-2.034-0.818l-0.829,2.065l-0.666-0.269l1.811-4.499
				l0.664,0.268l-0.74,1.842l2.033,0.818l0.742-1.842l0.672,0.27L310.265,371.953z M309.729,371.625l0.479,0.192l1.732-4.307
				l-0.479-0.192l-0.742,1.842l-2.225-0.896l0.74-1.842l-0.473-0.19l-1.731,4.307l0.473,0.191l0.829-2.065l2.227,0.896
				L309.729,371.625z"/>
		</g>
		<g>
			<path fill="#FFFFFF" d="M312.464,371.332l-1.137,1.087l-0.559-0.298l3.653-3.433l0.654,0.348l-0.801,4.951l-0.58-0.308
				l0.256-1.557L312.464,371.332z M314.063,371.641l0.232-1.424c0.053-0.323,0.123-0.605,0.189-0.881l-0.013-0.006
				c-0.194,0.215-0.398,0.434-0.614,0.646l-1.055,0.994L314.063,371.641z"/>
			<path fill="#FFFFFF" d="M314.315,374.066l-0.675-0.358l0.253-1.556l-1.418-0.756l-1.137,1.086l-0.658-0.35l3.734-3.508
				l0.719,0.383l-0.006,0.036L314.315,374.066z M313.753,373.651l0.481,0.256l0.783-4.843l-0.586-0.313l-3.574,3.357l0.462,0.246
				l1.137-1.086l1.552,0.826L313.753,373.651z M314.104,371.721l-1.391-0.739l1.109-1.044c0.185-0.181,0.379-0.386,0.61-0.643
				l0.028-0.03l0.084,0.045l-0.022,0.092c-0.063,0.258-0.128,0.522-0.176,0.823L314.104,371.721z M312.89,370.958l1.134,0.604
				l0.221-1.353c0.041-0.26,0.095-0.492,0.149-0.715c-0.185,0.199-0.345,0.367-0.501,0.519L312.89,370.958z"/>
		</g>
		<g>
			<path fill="#FFFFFF" d="M314.76,374.293l2.662-3.929l0.555,0.375l-0.088,2.841c-0.021,0.658-0.073,1.227-0.159,1.756l0.016,0.001
				c0.309-0.556,0.621-1.042,1.035-1.653l1.113-1.645l0.479,0.324l-2.663,3.929l-0.513-0.348l0.104-2.839
				c0.022-0.623,0.064-1.249,0.154-1.81l-0.022-0.006c-0.306,0.515-0.614,0.995-1.056,1.648l-1.139,1.679L314.76,374.293z"/>
			<path fill="#FFFFFF" d="M317.725,376.364l-0.58-0.394l0.104-2.867c0.022-0.648,0.063-1.167,0.124-1.612
				c-0.272,0.451-0.559,0.893-0.953,1.476l-1.168,1.723l-0.563-0.383l2.719-4.015l0.621,0.421l-0.089,2.869
				c-0.017,0.552-0.058,1.052-0.124,1.522c0.284-0.495,0.578-0.944,0.921-1.45l1.145-1.688l0.563,0.382L317.725,376.364z
				 M317.25,375.918l0.445,0.303l2.605-3.844l-0.393-0.266l-1.084,1.602c-0.389,0.573-0.713,1.073-1.033,1.649l-0.019,0.031
				l-0.103-0.014l0.008-0.053c0.087-0.535,0.141-1.106,0.16-1.748l0.086-2.813l-0.487-0.33l-2.604,3.843l0.393,0.266l1.107-1.636
				c0.445-0.656,0.752-1.134,1.057-1.646l0.021-0.034l0.104,0.029l-0.008,0.046c-0.077,0.484-0.127,1.058-0.154,1.803
				L317.25,375.918z"/>
		</g>
		<g>
			<path fill="#FFFFFF" d="M321.85,374.212l-1.112-0.921l0.333-0.401l2.705,2.242l-0.332,0.401l-1.116-0.926l-2.696,3.252
				l-0.477-0.396L321.85,374.212z"/>
			<path fill="#FFFFFF" d="M319.637,377.933l-0.556-0.462l2.695-3.252l-1.11-0.921l0.398-0.481l2.785,2.309l-0.4,0.48l-1.117-0.925
				L319.637,377.933z M319.226,377.458l0.397,0.329l2.696-3.253l1.117,0.926l0.266-0.321l-2.625-2.176l-0.267,0.321l1.111,0.921
				L319.226,377.458z"/>
		</g>
		<g>
			<path fill="#FFFFFF" d="M322.266,378.195l-1.395,0.725l-0.453-0.442l4.467-2.273l0.528,0.516l-2.151,4.529l-0.469-0.457
				l0.679-1.423L322.266,378.195z M323.714,378.938l0.621-1.303c0.141-0.295,0.286-0.546,0.429-0.792l-0.011-0.011
				c-0.247,0.153-0.504,0.307-0.771,0.449l-1.291,0.659L323.714,378.938z"/>
			<path fill="#FFFFFF" d="M323.28,381.337l-0.55-0.533l0.68-1.424l-1.152-1.121l-1.395,0.725l-0.532-0.519l4.563-2.324l0.582,0.567
				L323.28,381.337z M322.858,380.78l0.389,0.381l2.104-4.43l-0.477-0.465l-4.368,2.225l0.375,0.366l1.395-0.726l1.259,1.226
				L322.858,380.78z M323.731,379.025l-1.127-1.099l1.355-0.691c0.23-0.124,0.474-0.266,0.767-0.446l0.034-0.021l0.067,0.066
				l-0.044,0.078c-0.132,0.23-0.27,0.469-0.401,0.745L323.731,379.025z M322.78,377.953l0.92,0.896l0.589-1.237
				c0.113-0.236,0.229-0.444,0.343-0.644c-0.23,0.139-0.432,0.255-0.624,0.358L322.78,377.953z"/>
		</g>
		<g>
			<path fill="#FFFFFF" d="M327.776,383.428c0.492-0.443,1.083-0.978,1.548-1.345l-0.015-0.017c-0.533,0.225-1.118,0.443-1.775,0.67
				l-2.318,0.799l-0.293-0.361l1.273-2.019c0.378-0.597,0.734-1.131,1.088-1.589l-0.008-0.011c-0.469,0.361-1.111,0.835-1.689,1.25
				l-1.661,1.183l-0.367-0.454l3.895-2.731l0.492,0.607l-1.273,2.074c-0.329,0.521-0.632,0.976-0.94,1.379l0.014,0.016
				c0.447-0.207,0.958-0.404,1.557-0.617l2.316-0.789l0.492,0.607l-3.501,3.219l-0.378-0.465L327.776,383.428z"/>
			<path fill="#FFFFFF" d="M326.602,385.374l-0.441-0.546l1.58-1.438c0.407-0.368,0.899-0.813,1.329-1.167
				c-0.458,0.186-0.96,0.37-1.521,0.563l-2.351,0.811l-0.339-0.418l1.292-2.051c0.351-0.552,0.634-0.977,0.896-1.332
				c-0.424,0.321-0.938,0.7-1.431,1.053l-1.7,1.211l-0.434-0.535l3.981-2.791l0.544,0.674l-1.293,2.105
				c-0.33,0.523-0.596,0.918-0.845,1.254c0.374-0.168,0.819-0.341,1.414-0.553l2.351-0.801l0.545,0.674l-0.035,0.032
				L326.602,385.374z M326.303,384.839l0.311,0.384l3.425-3.147l-0.438-0.542l-2.281,0.777c-0.672,0.24-1.15,0.43-1.553,0.616
				l-0.036,0.017l-0.063-0.079l0.024-0.032c0.274-0.361,0.565-0.785,0.938-1.375l1.254-2.042l-0.438-0.542l-3.812,2.672l0.304,0.373
				l1.621-1.155c0.596-0.427,1.228-0.894,1.686-1.248l0.041-0.031l0.066,0.082l-0.026,0.032c-0.313,0.406-0.646,0.896-1.083,1.585
				l-1.253,1.988l0.246,0.304l2.281-0.787c0.668-0.229,1.249-0.447,1.774-0.669l0.037-0.015l0.07,0.088l-0.042,0.031
				c-0.47,0.373-1.066,0.911-1.544,1.344L326.303,384.839z"/>
		</g>
	</g>
</g>
</svg>
