<?xml version="1.0" encoding="utf-8"?>
<!-- Generator: Adobe Illustrator 16.0.0, SVG Export Plug-In . SVG Version: 6.00 Build 0)  -->
<!DOCTYPE svg PUBLIC "-//W3C//DTD SVG 1.1//EN" "http://www.w3.org/Graphics/SVG/1.1/DTD/svg11.dtd">
<svg version="1.1" id="logo-dark" xmlns="http://www.w3.org/2000/svg" xmlns:xlink="http://www.w3.org/1999/xlink" x="0px" y="0px"
	 width="92.16px" height="89.28px" viewBox="251.56 376.305 92.16 89.28" enable-background="new 251.56 376.305 92.16 89.28"
	 xml:space="preserve">
<g>
	<g>
		<g>
			<path d="M297.536,465.692c-11.077,0-22.154-4.217-30.587-12.649c-8.162-8.162-12.657-19.017-12.657-30.564
				s4.495-22.403,12.657-30.564c0.081-0.081,0.212-0.081,0.293,0s0.081,0.212,0,0.293c-8.083,8.083-12.535,18.834-12.535,30.271
				c0,11.438,4.452,22.188,12.535,30.271c16.704,16.703,43.883,16.703,60.586,0c0.081-0.082,0.213-0.082,0.294,0
				c0.081,0.081,0.081,0.212,0,0.293C319.691,461.476,308.614,465.692,297.536,465.692z"/>
		</g>
		<g>
			<path d="M327.887,453.193c-0.054,0-0.106-0.021-0.147-0.061c-0.081-0.081-0.081-0.213,0-0.294
				c8.49-8.489,13.043-20.269,12.491-32.316c-0.005-0.115,0.083-0.212,0.198-0.217c0.113-0.004,0.211,0.083,0.217,0.198
				c0.273,5.974-0.647,11.813-2.738,17.357c-2.167,5.748-5.489,10.887-9.874,15.271C327.993,453.173,327.94,453.193,327.887,453.193
				z"/>
		</g>
		<g>
			<path d="M267.007,392.313c-0.053,0-0.106-0.02-0.147-0.061c-0.081-0.081-0.081-0.212,0-0.293
				c4.344-4.344,9.373-7.621,14.947-9.74c0.107-0.041,0.227,0.013,0.268,0.12c0.041,0.107-0.013,0.227-0.121,0.268
				c-5.519,2.098-10.499,5.343-14.801,9.646C267.113,392.293,267.06,392.313,267.007,392.313z"/>
		</g>
	</g>
	<g>
		<path fill="#212529" d="M331.415,400.637c-0.268,0.179-0.58,0.179-0.759-0.089s-0.134-0.581,0.134-0.759s0.581-0.179,0.76,0.089
			C331.729,400.101,331.684,400.414,331.415,400.637z"/>
		<path fill="#212529" d="M331.043,400.813c-0.176,0-0.328-0.084-0.43-0.237c-0.199-0.298-0.139-0.64,0.147-0.831
			c0.131-0.087,0.27-0.133,0.401-0.133c0.176,0,0.328,0.084,0.431,0.237c0.199,0.249,0.141,0.591-0.145,0.828
			C331.314,400.767,331.175,400.813,331.043,400.813z M331.162,399.715c-0.111,0-0.229,0.04-0.344,0.116
			c-0.239,0.159-0.287,0.436-0.119,0.687c0.083,0.125,0.202,0.191,0.344,0.191c0.111,0,0.23-0.04,0.344-0.116
			c0.234-0.196,0.286-0.479,0.122-0.684C331.423,399.781,331.304,399.715,331.162,399.715z"/>
	</g>
	<g>
		<path fill="#212529" d="M334.542,404.791l-0.759-1.295c-0.269,0.224-0.357,0.581-0.179,0.894c0.134,0.179,0.268,0.313,0.491,0.357
			l-0.045,0.223c-0.268-0.044-0.491-0.223-0.625-0.491c-0.269-0.447-0.135-0.983,0.313-1.25c0.446-0.268,0.982-0.134,1.25,0.313
			C335.302,404.031,335.078,404.478,334.542,404.791z M334.632,404.478c0.313-0.179,0.356-0.536,0.178-0.804
			c-0.178-0.313-0.491-0.402-0.849-0.268L334.632,404.478z"/>
		<path fill="#212529" d="M334.092,405.029l-0.05-0.008c-0.279-0.046-0.521-0.236-0.663-0.519c-0.135-0.225-0.177-0.484-0.115-0.729
			c0.061-0.244,0.22-0.453,0.447-0.59c0.158-0.095,0.334-0.145,0.509-0.145c0.331,0,0.635,0.178,0.813,0.476
			c0.137,0.214,0.181,0.43,0.13,0.639c-0.062,0.256-0.268,0.492-0.595,0.683l-0.045,0.026l-0.753-1.285
			c-0.222,0.216-0.271,0.525-0.121,0.786c0.13,0.173,0.253,0.292,0.456,0.333l0.051,0.01L334.092,405.029z M334.22,403.142
			c-0.156,0-0.313,0.045-0.455,0.13c-0.204,0.123-0.347,0.31-0.4,0.526c-0.055,0.217-0.017,0.449,0.105,0.653
			c0.122,0.243,0.312,0.403,0.54,0.457l0.024-0.123c-0.205-0.056-0.338-0.187-0.472-0.365c-0.188-0.33-0.112-0.715,0.187-0.964
			l0.048-0.04l0.764,1.303c0.276-0.171,0.449-0.375,0.502-0.591c0.044-0.18,0.004-0.369-0.118-0.56
			C334.784,403.301,334.514,403.142,334.22,403.142z M334.615,404.548l-0.73-1.168l0.06-0.022c0.386-0.145,0.725-0.037,0.912,0.291
			c0.099,0.148,0.134,0.33,0.095,0.495c-0.037,0.158-0.141,0.293-0.293,0.38L334.615,404.548z M334.04,403.434l0.607,0.973
			c0.105-0.072,0.175-0.171,0.202-0.288c0.032-0.137,0.002-0.289-0.083-0.416C334.613,403.434,334.351,403.339,334.04,403.434z"/>
	</g>
	<g>
		<path fill="#212529" d="M335.748,405.282c-0.09-0.178-0.224-0.268-0.402-0.178c-0.357,0.178,0.313,0.982-0.268,1.295
			c-0.313,0.178-0.625-0.045-0.76-0.357c-0.134-0.224-0.179-0.492-0.089-0.76h0.224c-0.045,0.224,0,0.447,0.089,0.626
			c0.09,0.178,0.268,0.313,0.402,0.223c0.401-0.223-0.269-0.983,0.268-1.295c0.313-0.179,0.581,0.044,0.76,0.313
			c0.089,0.179,0.134,0.402,0.134,0.581h-0.224C335.838,405.595,335.793,405.416,335.748,405.282z"/>
		<path fill="#212529" d="M334.851,406.514c-0.234,0-0.462-0.177-0.579-0.452c-0.147-0.244-0.181-0.529-0.092-0.796l0.013-0.036
			h0.323l-0.012,0.062c-0.039,0.194-0.009,0.405,0.085,0.592c0.082,0.164,0.231,0.266,0.326,0.203
			c0.146-0.082,0.125-0.245,0.073-0.504c-0.055-0.27-0.122-0.606,0.197-0.792c0.083-0.047,0.168-0.071,0.252-0.071
			c0.257,0,0.455,0.217,0.577,0.4c0.09,0.18,0.143,0.406,0.143,0.609v0.052h-0.313l-0.012-0.036
			c-0.022-0.067-0.045-0.146-0.067-0.225c-0.022-0.078-0.045-0.156-0.066-0.222c-0.082-0.162-0.192-0.217-0.33-0.148
			c-0.115,0.058-0.091,0.207-0.042,0.445c0.061,0.292,0.136,0.656-0.225,0.85C335.023,406.491,334.937,406.514,334.851,406.514z
			 M334.268,405.334c-0.065,0.228-0.032,0.468,0.096,0.681c0.142,0.329,0.438,0.482,0.689,0.339
			c0.292-0.158,0.231-0.453,0.173-0.738c-0.047-0.228-0.096-0.462,0.098-0.559c0.054-0.027,0.106-0.041,0.157-0.041
			c0.088,0,0.214,0.042,0.314,0.242c0.024,0.075,0.048,0.154,0.07,0.233c0.018,0.064,0.036,0.127,0.055,0.185h0.132
			c-0.008-0.172-0.055-0.362-0.127-0.505c-0.104-0.156-0.276-0.348-0.487-0.348c-0.065,0-0.133,0.019-0.2,0.057
			c-0.255,0.149-0.203,0.408-0.147,0.682c0.049,0.242,0.099,0.492-0.121,0.614c-0.033,0.022-0.074,0.035-0.118,0.035
			c-0.148,0-0.285-0.141-0.355-0.28c-0.094-0.188-0.13-0.398-0.104-0.597H334.268z"/>
	</g>
	<g>
		<path fill="#212529" d="M335.346,407.828c-0.134-0.089-0.223-0.179-0.313-0.313c-0.134-0.223-0.045-0.492,0.269-0.625l0.938-0.447
			l-0.134-0.223l0.179-0.089l0.134,0.223l0.446-0.223l0.134,0.223l-0.446,0.223l0.269,0.536l-0.179,0.089l-0.269-0.536l-0.893,0.446
			c-0.179,0.089-0.224,0.223-0.179,0.357c0.044,0.089,0.134,0.134,0.223,0.224L335.346,407.828z"/>
		<path fill="#212529" d="M335.348,407.892l-0.03-0.021c-0.14-0.093-0.234-0.188-0.327-0.327c-0.07-0.118-0.087-0.247-0.049-0.367
			c0.046-0.143,0.167-0.261,0.34-0.335l0.884-0.421l-0.133-0.223l0.271-0.136l0.134,0.223l0.447-0.223l0.188,0.313l-0.451,0.225
			l0.269,0.536l-0.271,0.136l-0.269-0.536l-0.847,0.423c-0.141,0.071-0.193,0.172-0.152,0.294c0.021,0.042,0.063,0.075,0.114,0.118
			c0.031,0.025,0.063,0.052,0.097,0.085l0.042,0.042L335.348,407.892z M336.179,406.241l0.135,0.225l-0.99,0.471
			c-0.146,0.063-0.246,0.159-0.283,0.272c-0.029,0.092-0.017,0.189,0.038,0.279c0.077,0.117,0.154,0.197,0.267,0.275l0.099-0.074
			c-0.015-0.013-0.03-0.025-0.044-0.038c-0.057-0.046-0.11-0.091-0.145-0.158c-0.061-0.18,0.014-0.333,0.202-0.427l0.939-0.47
			l0.268,0.536l0.086-0.043l-0.268-0.536l0.442-0.222l-0.08-0.134l-0.446,0.223l-0.134-0.223L336.179,406.241z"/>
	</g>
	<g>
		<path fill="#212529" d="M337.982,409.57c0.223-0.089,0.268-0.313,0.134-0.625c-0.089-0.223-0.313-0.402-0.536-0.536l0.134-0.179
			c0.269,0.134,0.536,0.357,0.626,0.67c0.179,0.447,0.089,0.804-0.269,0.938c-0.223,0.09-0.536,0.045-0.893-0.089l-1.028-0.402
			l0.537,1.295l-0.224,0.089l-0.67-1.608l0.223-0.089l1.296,0.492C337.579,409.615,337.848,409.659,337.982,409.57z"/>
		<path fill="#212529" d="M336.435,410.799l-0.71-1.704l0.291-0.116l1.314,0.499c0.176,0.059,0.331,0.09,0.446,0.09l0,0
			c0.077,0,0.137-0.014,0.176-0.04c0.086-0.035,0.138-0.083,0.164-0.147c0.042-0.1,0.024-0.243-0.049-0.414
			c-0.071-0.177-0.244-0.349-0.515-0.512l-0.05-0.029l0.195-0.26l0.038,0.02c0.197,0.099,0.543,0.321,0.652,0.702
			c0.106,0.267,0.121,0.509,0.038,0.695c-0.062,0.14-0.179,0.246-0.338,0.306c-0.219,0.088-0.536,0.058-0.93-0.089l-0.915-0.358
			l0.51,1.231L336.435,410.799z M335.861,409.152l0.631,1.512l0.127-0.051l-0.563-1.359l1.141,0.446
			c0.365,0.138,0.658,0.168,0.855,0.09c0.135-0.051,0.229-0.135,0.28-0.251c0.071-0.161,0.057-0.375-0.042-0.62
			c-0.093-0.325-0.376-0.524-0.562-0.623l-0.073,0.098c0.263,0.166,0.434,0.345,0.508,0.531c0.086,0.199,0.103,0.365,0.05,0.493
			c-0.038,0.091-0.109,0.158-0.212,0.199c-0.048,0.033-0.127,0.052-0.225,0.052l0,0c-0.128,0-0.29-0.032-0.481-0.095l-1.278-0.485
			L335.861,409.152z"/>
	</g>
	<g>
		<path fill="#212529" d="M338.383,412.339c-0.759,0.268-1.25,0.089-1.474-0.447c-0.179-0.536,0.089-0.982,0.849-1.25
			s1.251-0.089,1.474,0.447C339.411,411.625,339.098,412.071,338.383,412.339z M337.848,410.91
			c-0.626,0.223-0.894,0.536-0.715,0.938c0.134,0.402,0.536,0.491,1.161,0.268c0.625-0.224,0.849-0.536,0.715-0.938
			S338.473,410.687,337.848,410.91z"/>
		<path fill="#212529" d="M337.755,412.514c-0.42,0-0.729-0.208-0.894-0.602c-0.194-0.583,0.118-1.051,0.879-1.319
			c0.76-0.268,1.301-0.097,1.539,0.476c0.188,0.561-0.133,1.04-0.878,1.319C338.163,412.472,337.947,412.514,337.755,412.514z
			 M338.386,410.571c-0.179,0-0.385,0.041-0.61,0.12c-0.709,0.25-0.992,0.66-0.816,1.186c0.217,0.52,0.702,0.663,1.407,0.414
			c0.694-0.26,0.984-0.681,0.816-1.185C339.035,410.752,338.767,410.571,338.386,410.571z M337.711,412.288L337.711,412.288
			c-0.318,0-0.535-0.146-0.628-0.423c-0.069-0.157-0.075-0.31-0.016-0.451c0.094-0.219,0.351-0.405,0.763-0.552
			c0.654-0.234,1.087-0.124,1.228,0.301c0.146,0.436-0.105,0.774-0.746,1.003C338.083,412.247,337.882,412.288,337.711,412.288z
			 M338.43,410.842c-0.158,0-0.349,0.04-0.564,0.117c-0.384,0.137-0.62,0.304-0.702,0.496c-0.049,0.114-0.044,0.236,0.017,0.372
			c0.081,0.242,0.254,0.357,0.531,0.357c0.159,0,0.349-0.039,0.565-0.116c0.586-0.209,0.81-0.495,0.683-0.873
			C338.882,410.961,338.703,410.842,338.43,410.842z"/>
	</g>
	<g>
		<path fill="#212529" d="M339.455,413.813c0.224-0.09,0.313-0.313,0.224-0.581c-0.045-0.223-0.268-0.447-0.491-0.581l0.179-0.179
			c0.268,0.179,0.491,0.447,0.58,0.715c0.135,0.447,0,0.804-0.357,0.894c-0.223,0.044-0.536-0.045-0.893-0.224l-0.983-0.536
			l0.402,1.34l-0.268,0.089l-0.492-1.653l0.224-0.044l1.206,0.625C339.053,413.813,339.277,413.858,339.455,413.813z"/>
		<path fill="#212529" d="M337.814,414.817l-0.523-1.758l0.297-0.06l1.223,0.634c0.254,0.127,0.468,0.171,0.633,0.129
			c0.192-0.077,0.267-0.275,0.187-0.514c-0.046-0.229-0.28-0.44-0.468-0.552l-0.058-0.034l0.256-0.256l0.035,0.023
			c0.285,0.19,0.51,0.467,0.602,0.742c0.081,0.269,0.069,0.515-0.032,0.693c-0.076,0.135-0.202,0.227-0.362,0.267
			c-0.043,0.009-0.088,0.013-0.135,0.013c-0.208,0-0.476-0.081-0.794-0.24l-0.874-0.477l0.381,1.268L337.814,414.817z
			 M337.422,413.139l0.46,1.546l0.169-0.057l-0.424-1.413l1.094,0.597c0.365,0.183,0.66,0.258,0.858,0.218
			c0.132-0.033,0.231-0.106,0.295-0.217c0.087-0.153,0.095-0.37,0.022-0.61c-0.08-0.241-0.274-0.486-0.524-0.663l-0.103,0.103
			c0.194,0.129,0.413,0.345,0.46,0.579c0.096,0.286-0.004,0.539-0.255,0.639c-0.056,0.015-0.107,0.021-0.162,0.021
			c-0.158,0-0.343-0.052-0.551-0.156l-1.19-0.617L337.422,413.139z"/>
	</g>
	<g>
		<path fill="#212529" d="M339.545,416.627c-0.76,0.178-1.251,0-1.43-0.581c-0.134-0.581,0.224-0.982,0.982-1.161
			c0.76-0.179,1.251,0,1.385,0.581C340.661,416.002,340.304,416.404,339.545,416.627z M339.188,415.108
			c-0.626,0.179-0.938,0.447-0.805,0.849c0.09,0.402,0.492,0.536,1.117,0.358c0.625-0.179,0.894-0.447,0.804-0.849
			C340.215,415.108,339.858,414.975,339.188,415.108z"/>
		<path fill="#212529" d="M339.033,416.746c-0.503,0-0.828-0.23-0.968-0.684c-0.14-0.605,0.224-1.04,1.021-1.227
			c0.805-0.189,1.311,0.03,1.447,0.619c0.072,0.216,0.062,0.42-0.034,0.603c-0.141,0.27-0.457,0.479-0.939,0.621
			C339.365,416.723,339.19,416.746,339.033,416.746z M339.609,414.871c-0.147,0-0.315,0.021-0.498,0.065
			c-0.519,0.122-1.104,0.411-0.944,1.099c0.166,0.539,0.618,0.718,1.367,0.542c0.445-0.131,0.749-0.328,0.874-0.568
			c0.082-0.156,0.091-0.333,0.026-0.526C340.339,415.075,340.063,414.871,339.609,414.871z M339.012,416.444L339.012,416.444
			c-0.37,0-0.611-0.169-0.68-0.476c-0.049-0.147-0.041-0.288,0.024-0.413c0.11-0.208,0.377-0.371,0.816-0.497
			c0.177-0.035,0.332-0.053,0.467-0.053c0.4,0,0.641,0.15,0.715,0.447c0.095,0.425-0.181,0.723-0.84,0.912
			C339.329,416.417,339.16,416.444,339.012,416.444z M339.64,415.109c-0.128,0-0.276,0.017-0.442,0.05
			c-0.4,0.115-0.654,0.264-0.749,0.444c-0.053,0.101-0.058,0.211-0.016,0.337c0.074,0.331,0.355,0.399,0.579,0.399l0,0
			c0.139,0,0.298-0.025,0.474-0.076c0.605-0.172,0.849-0.423,0.768-0.788C340.192,415.23,339.991,415.109,339.64,415.109z"/>
	</g>
	<g>
		<g>
			<path fill="#212529" d="M276.566,445.526h5.538c0.491,0,0.938-0.179,1.295-0.536c0.357-0.357,0.536-0.804,0.536-1.295v-1.787
				c0-0.446,0.044-0.938,0.134-1.385l1.072-6.208c3.305-0.313,8.442-1.341,9.514-1.563c2.368,1.965,6.432,4.377,9.112,5.851
				c0.804,0.447,1.697,0.716,2.636,0.85l6.923,0.715c0.894,0.089,1.742,0.446,2.412,0.938l0.269,0.224l-0.313,1.965l-0.759,0.224
				c-0.447,0.134-0.715,0.536-0.715,0.938c0,0.536,0.446,0.983,0.982,0.983h1.742c0.625,0,1.206-0.402,1.43-0.983l1.295-3.395
				c0.045-0.179,0.09-0.356,0.09-0.536c0-0.67-0.447-1.25-1.072-1.474l-1.831-0.581l-4.199-2.59
				c-0.759-0.492-1.652-0.805-2.546-0.938l-2.322-0.357c-0.938-0.134-1.832-0.536-2.636-1.072l-3.35-2.411
				c-0.804-0.581-1.43-1.43-1.787-2.367v-0.045c-0.313-0.894-0.849-1.697-1.519-2.323l-1.027-0.938l-0.536-1.43v-2.278l1.519-2.367
				c0.491-0.759,0.669-1.653,0.535-2.546l-0.357-2.01l0.224-0.625c1.921-0.357,2.68-2.367,2.725-2.456
				c0.045-0.134,0.089-0.268,0.134-0.402c0.135,0.044,0.269,0.044,0.447,0.044c0.491,0,0.982-0.178,1.385-0.491
				c0.982-0.76,1.161-2.189,0.401-3.171c-0.625-0.849-1.786-1.072-2.68-0.67c0-0.044-0.045-0.044-0.045-0.089l-0.045-0.044
				l2.145-6.878l1.965-1.742c0.224-0.179,0.357-0.447,0.357-0.759s-0.134-0.581-0.401-0.804c-0.224-0.179-0.536-0.268-0.849-0.179
				l-0.135,0.045l0.269-0.983c0.089-0.313,0.044-0.67-0.134-0.982c-0.179-0.313-0.492-0.492-0.805-0.581h-0.089
				c-0.491-0.089-1.027,0.134-1.251,0.581l-0.982,1.653c-0.179,0.313-0.313,0.714-0.357,1.072l-0.179,1.921l-2.546,6.074
				c-1.072-0.223-2.412,0.447-2.859,0.938c-0.625,0.67-0.982,1.653-1.072,2.01l-1.072,0.849c-0.179,0.134-0.223,0.358-0.089,0.536
				l0.447,0.759c-0.134,0.313-0.402,0.938-0.357,1.43c0.044,0.447,0.67,1.608,1.697,1.875l-0.134,0.313l-2.769,1.25
				c-0.982,0.447-1.742,1.385-1.965,2.457c-0.179,0.849-0.089,1.742,0.357,2.501l0.581,1.117l-0.179,2.323l-0.402,2.68
				c0,0.135,0,0.269,0.089,0.357l0.044,0.045l-0.089,0.179l-8.844,3.216c-0.804,0.269-1.34,1.027-1.295,1.876l0.447,7.816
				c0.044,1.027-0.089,2.055-0.402,3.037l-3.975,0.894c-0.402,0.09-0.67,0.447-0.67,0.849
				C275.717,445.124,276.119,445.526,276.566,445.526L276.566,445.526z M316.452,439.318c0.045,0,0.045,0.044,0.089,0.044
				l1.876,0.581c0.313,0.089,0.492,0.357,0.492,0.67c0,0.09,0,0.179-0.045,0.268l-1.296,3.395c-0.089,0.269-0.357,0.447-0.67,0.447
				h-1.741c-0.09,0-0.179-0.09-0.179-0.179c0-0.09,0.044-0.135,0.134-0.179l1.027-0.269c0.134-0.044,0.268-0.178,0.313-0.313
				l0.402-2.456c0.044-0.135-0.045-0.313-0.179-0.402l-0.492-0.357c-0.849-0.625-1.786-1.027-2.858-1.116l-4.913-0.536
				c0.224-0.804,0.938-2.145,1.519-3.037c0.804,0.134,1.519,0.401,2.188,0.804L316.452,439.318z M300.775,411.446
				c0,0-0.491,1.339-1.653,1.831l1.697-5.36l0,0C301.221,408.9,301.221,410.285,300.775,411.446z M303.231,408.23
				c0.491,0.625,0.357,1.519-0.268,2.01c-0.313,0.268-0.715,0.357-1.116,0.268c0.134-0.938,0.089-1.92-0.224-2.725
				C302.203,407.605,302.829,407.739,303.231,408.23z M301.49,399.609c0-0.044,0.044-0.089,0.044-0.134l0.179-1.965
				c0-0.268,0.09-0.491,0.224-0.715l0.982-1.652c0.09-0.134,0.224-0.179,0.357-0.179c0.045,0,0.045,0,0.09,0h0.089
				c0.134,0,0.224,0.089,0.268,0.179c0.045,0.089,0.09,0.223,0.045,0.313l-0.491,1.653c-0.045,0.134,0,0.313,0.09,0.402
				c0.089,0.089,0.268,0.134,0.401,0.134l0.849-0.223c0.09,0,0.134,0,0.134,0.045c0.045,0,0.045,0.044,0.045,0.134
				c0,0.044-0.045,0.089-0.045,0.134l0,0l-2.054,1.832c-0.045,0.044-0.09,0.134-0.135,0.179l-2.277,7.28l-3.082,9.827
				c-0.179,0.581-0.715,0.938-1.295,0.893c-0.357-0.044-0.715-0.268-0.894-0.58c-0.179-0.313-0.223-0.715-0.089-1.072l3.886-9.916
				L301.49,399.609z M297.826,406.131l-0.759,1.965c-0.447-0.491-0.894-0.938-1.161-1.25
				C296.219,406.533,297.112,406.042,297.826,406.131z M293.985,411.759c0-0.313,0.223-0.894,0.357-1.206
				c0.045-0.134,0.045-0.268,0-0.402l-0.357-0.625l0.849-0.67c0.089-0.045,0.134-0.134,0.134-0.223c0,0,0.179-0.581,0.491-1.162
				c0.357,0.357,0.849,0.894,1.295,1.385v0.044l-1.563,4.02C294.432,412.786,293.985,411.938,293.985,411.759L293.985,411.759z
				 M290.769,417.923c0.179-0.804,0.759-1.519,1.519-1.876l2.01-0.938l-0.224,0.625c-0.223,0.581-0.179,1.251,0.134,1.787
				c0.313,0.536,0.894,0.893,1.519,0.982c0.089,0,0.179,0,0.223,0c0.894,0,1.697-0.581,1.965-1.474l0.179-0.491l0.089,0.447
				c0.134,0.67,0,1.385-0.402,1.965l-1.608,2.457c-0.044,0.044-0.044,0.134-0.044,0.223v2.457c0,0.044,0,0.089,0.044,0.134
				l0.447,1.161l-5.315,0.536l0.313-2.145c0,0,0,0,0-0.044l0.224-2.457c0-0.089,0-0.178-0.045-0.223l-0.67-1.206
				C290.725,419.263,290.635,418.548,290.769,417.923L290.769,417.923z M281.836,430.965l9.022-3.35
				c0.089-0.045,0.179-0.134,0.223-0.224l0.224-0.625l5.672-0.536l0.894,0.849c0.581,0.536,1.027,1.251,1.295,2.01v0.045
				c0.402,1.117,1.117,2.055,2.055,2.77l3.35,2.412c0.894,0.625,1.921,1.071,2.993,1.25l1.474,0.224
				c-0.446,0.76-1.205,2.145-1.429,3.082l-1.206-0.134c-0.804-0.09-1.608-0.313-2.322-0.715c-6.03-3.35-9.961-6.119-10.497-7.459
				l-0.759,0.313c0.179,0.401,0.491,0.849,0.983,1.295c-2.233,0.447-8.621,1.653-10.72,1.475l-0.044,0.804c0.134,0,0.313,0,0.491,0
				c0.223,0,0.446,0,0.67,0l-0.134,0.76c-1.474-0.045-2.501-0.492-2.858-0.715l-0.134-2.502
				C281.077,431.546,281.389,431.1,281.836,430.965L281.836,430.965z M276.566,444.588l4.198-0.938
				c0.134-0.045,0.268-0.134,0.313-0.268c0.446-1.162,0.625-2.367,0.536-3.573l-0.268-4.423c0.581,0.269,1.474,0.536,2.68,0.581
				l-0.759,4.422c-0.089,0.491-0.134,1.027-0.134,1.519v1.787c0,0.268-0.089,0.536-0.313,0.714
				c-0.179,0.179-0.447,0.313-0.715,0.313h-5.538c-0.045,0-0.045-0.045-0.045-0.045
				C276.521,444.633,276.566,444.633,276.566,444.588L276.566,444.588z"/>
		</g>
		<g id="Page-1_2_">
			<g id="_x30_02---Warrior-Pose_2_">
				<g id="Shape_4_">
					<path fill="#212529" d="M273.349,445.438c-0.536,0-0.938,0.356-0.938,0.804l0,0c0,0.446,0.447,0.804,0.938,0.804h46.631
						c0.536,0,0.938-0.357,0.938-0.804c0-0.447-0.446-0.804-0.938-0.804h-6.432"/>
				</g>
				<g id="Shape_1_">
					<path fill="#212529" d="M322.661,445.438c-0.447,0-0.805,0.356-0.805,0.804c0,0.446,0.357,0.804,0.805,0.804h0.804
						c0.446,0,0.804-0.357,0.804-0.804c0-0.447-0.357-0.804-0.804-0.804H322.661z"/>
				</g>
			</g>
		</g>
	</g>
	<g>
		<g>
			<path fill="#212529" d="M284.656,381.912l-0.123,1.567l-0.616,0.151l0.435-4.994l0.718-0.176l2.705,4.223l-0.636,0.156
				l-0.848-1.329L284.656,381.912z M286.054,381.076l-0.777-1.216c-0.177-0.275-0.313-0.532-0.446-0.782l-0.014,0.003
				c-0.001,0.291-0.007,0.589-0.028,0.892l-0.124,1.444L286.054,381.076z"/>
			<path fill="#212529" d="M283.861,383.698l0.444-5.103l0.791-0.194l2.763,4.315l-0.742,0.182l-0.849-1.329l-1.562,0.384
				l-0.123,1.567L283.861,383.698z M284.402,378.678l-0.425,4.884l0.509-0.125l0.123-1.567l1.707-0.419l0.849,1.329l0.529-0.13
				l-2.645-4.131L284.402,378.678z M284.608,381.484l0.13-1.516c0.017-0.259,0.026-0.541,0.027-0.887l0-0.041l0.092-0.022
				l0.04,0.074c0.126,0.236,0.257,0.48,0.423,0.74l0.816,1.277L284.608,381.484z M284.868,379.256
				c-0.003,0.271-0.012,0.503-0.026,0.72l-0.118,1.373l1.247-0.306l-0.738-1.155C285.092,379.667,284.976,379.458,284.868,379.256z"
				/>
		</g>
		<g>
			<path fill="#212529" d="M288.343,382.587l-0.634-4.704l0.664-0.089l1.828,2.177c0.423,0.504,0.762,0.963,1.05,1.415l0.013-0.009
				c-0.141-0.621-0.231-1.191-0.33-1.924l-0.265-1.968l0.572-0.077l0.633,4.704l-0.614,0.083l-1.815-2.186
				c-0.398-0.479-0.785-0.975-1.09-1.452l-0.021,0.01c0.115,0.589,0.205,1.152,0.31,1.934l0.271,2.01L288.343,382.587z"/>
			<path fill="#212529" d="M288.298,382.646l-0.647-4.807l0.743-0.1l1.846,2.199c0.355,0.423,0.658,0.823,0.922,1.218
				c-0.118-0.558-0.198-1.089-0.28-1.696l-0.272-2.02l0.675-0.091l0.647,4.807l-0.694,0.094l-1.833-2.208
				c-0.414-0.498-0.73-0.912-0.982-1.286c0.097,0.52,0.179,1.04,0.272,1.737l0.277,2.062L288.298,382.646z M287.768,377.928
				l0.62,4.601l0.469-0.063l-0.264-1.959c-0.105-0.784-0.195-1.344-0.31-1.931l-0.008-0.039l0.098-0.047l0.025,0.039
				c0.267,0.416,0.612,0.875,1.087,1.447l1.796,2.164l0.534-0.072l-0.619-4.602l-0.47,0.063l0.258,1.917
				c0.093,0.688,0.184,1.277,0.33,1.919l0.008,0.035l-0.087,0.058l-0.028-0.044c-0.292-0.457-0.634-0.918-1.046-1.409l-1.809-2.155
				L287.768,377.928z"/>
		</g>
		<g>
			<path fill="#212529" d="M293.548,380.531l-0.452,1.506l-0.633,0.018l1.481-4.789l0.739-0.021l1.75,4.7l-0.655,0.018l-0.548-1.479
				L293.548,380.531z M295.09,380.01l-0.502-1.353c-0.114-0.307-0.192-0.586-0.271-0.859h-0.014
				c-0.063,0.284-0.132,0.575-0.215,0.866l-0.427,1.385L295.09,380.01z"/>
			<path fill="#212529" d="M292.392,382.109l1.513-4.894l0.813-0.022l1.789,4.802l-0.764,0.021l-0.548-1.478l-1.607,0.044
				l-0.452,1.506L292.392,382.109z M293.982,377.316l-1.448,4.685l0.523-0.015l0.452-1.506l1.757-0.049l0.548,1.479l0.544-0.015
				l-1.712-4.597L293.982,377.316z M293.59,380.103l0.448-1.455c0.072-0.252,0.141-0.526,0.214-0.862l0.009-0.04l0.095-0.001
				l0.029,0.101c0.072,0.251,0.146,0.511,0.251,0.792l0.527,1.421L293.59,380.103z M294.316,377.98
				c-0.061,0.262-0.118,0.487-0.178,0.698l-0.405,1.317l1.284-0.035l-0.478-1.285C294.448,378.429,294.379,378.2,294.316,377.98z"/>
		</g>
		<g>
			<path fill="#212529" d="M297.008,381.97l0.366-4.732l0.667,0.051l1.332,2.511c0.309,0.582,0.543,1.102,0.73,1.603l0.015-0.006
				c-0.007-0.636,0.023-1.213,0.08-1.95l0.153-1.98l0.575,0.044l-0.365,4.732l-0.618-0.048l-1.316-2.517
				c-0.29-0.552-0.564-1.117-0.763-1.648l-0.022,0.005c-0.011,0.6-0.041,1.169-0.102,1.956l-0.156,2.022L297.008,381.97z"/>
			<path fill="#212529" d="M300.609,382.3l-0.698-0.054l-1.33-2.542c-0.302-0.574-0.524-1.045-0.691-1.462
				c-0.013,0.523-0.042,1.049-0.097,1.755l-0.16,2.074l-0.679-0.053l0.374-4.835l0.747,0.058l0.014,0.025l1.332,2.511
				c0.258,0.487,0.471,0.942,0.646,1.384c0.002-0.571,0.034-1.106,0.081-1.716l0.157-2.032l0.679,0.053L300.609,382.3z
				 M299.976,382.147l0.537,0.042l0.357-4.629l-0.473-0.036l-0.148,1.928c-0.054,0.691-0.088,1.286-0.08,1.945l0.001,0.035
				l-0.097,0.041l-0.019-0.051c-0.19-0.509-0.429-1.032-0.729-1.597l-1.318-2.486l-0.586-0.045l-0.358,4.628l0.473,0.037
				l0.152-1.971c0.062-0.795,0.091-1.361,0.102-1.952l0-0.04l0.105-0.027l0.016,0.043c0.172,0.46,0.414,0.982,0.76,1.643
				L299.976,382.147z"/>
		</g>
		<g>
			<path fill="#212529" d="M302.37,377.768c0.377,0.015,0.82,0.056,1.298,0.147c0.864,0.164,1.441,0.482,1.777,0.94
				c0.343,0.459,0.482,1.045,0.339,1.799c-0.145,0.761-0.498,1.338-1.016,1.685c-0.519,0.353-1.282,0.451-2.188,0.279
				c-0.429-0.082-0.784-0.171-1.082-0.263L302.37,377.768z M302.188,382.004c0.146,0.057,0.367,0.106,0.603,0.15
				c1.286,0.245,2.122-0.342,2.361-1.601c0.216-1.098-0.273-1.915-1.547-2.157c-0.311-0.059-0.551-0.076-0.717-0.072
				L302.188,382.004z"/>
			<path fill="#212529" d="M303.406,382.751c-0.263,0-0.544-0.028-0.836-0.084c-0.404-0.077-0.771-0.166-1.088-0.264l-0.044-0.014
				l0.889-4.675l0.045,0.001c0.44,0.017,0.88,0.066,1.306,0.147c0.864,0.164,1.456,0.479,1.81,0.96
				c0.369,0.494,0.486,1.113,0.348,1.839c-0.146,0.767-0.504,1.361-1.037,1.718C304.437,382.626,303.968,382.751,303.406,382.751z
				 M301.558,382.317c0.303,0.092,0.65,0.175,1.032,0.248c0.285,0.055,0.561,0.082,0.816,0.082c0.541,0,0.989-0.119,1.333-0.353
				c0.51-0.341,0.854-0.912,0.994-1.651c0.134-0.706,0.026-1.281-0.329-1.758c-0.338-0.46-0.909-0.761-1.746-0.92
				c-0.406-0.077-0.825-0.125-1.246-0.144L301.558,382.317z M303.336,382.261L303.336,382.261c-0.176,0-0.362-0.019-0.556-0.055
				c-0.294-0.056-0.482-0.103-0.611-0.153l-0.04-0.016l0.716-3.763l0.041-0.001c0.018-0.001,0.035-0.001,0.053-0.001
				c0.133,0,0.357,0.013,0.676,0.073c0.639,0.122,1.099,0.386,1.37,0.787c0.257,0.38,0.33,0.862,0.218,1.432
				C304.994,381.659,304.331,382.261,303.336,382.261z M302.247,381.971c0.16,0.056,0.389,0.102,0.553,0.133
				c0.187,0.036,0.367,0.053,0.536,0.053l0,0c0.953,0,1.563-0.558,1.765-1.612c0.106-0.542,0.038-0.998-0.203-1.354
				c-0.254-0.377-0.692-0.626-1.303-0.743c-0.317-0.06-0.533-0.072-0.664-0.071L302.247,381.971z"/>
		</g>
		<g>
			<path fill="#212529" d="M306.107,382.558c0.215,0.24,0.561,0.488,0.966,0.607c0.602,0.177,1.047-0.037,1.182-0.497
				c0.125-0.426-0.047-0.74-0.592-1.158c-0.666-0.482-1.012-1.002-0.823-1.644c0.209-0.709,0.951-1.063,1.836-0.803
				c0.467,0.137,0.772,0.345,0.941,0.519l-0.304,0.432c-0.125-0.125-0.389-0.35-0.801-0.471c-0.621-0.183-0.967,0.119-1.059,0.43
				c-0.125,0.426,0.09,0.716,0.647,1.145c0.683,0.523,0.965,1.011,0.769,1.679c-0.207,0.703-0.905,1.158-1.979,0.842
				c-0.439-0.129-0.882-0.398-1.077-0.632L306.107,382.558z"/>
			<path fill="#212529" d="M307.547,383.794c-0.211,0-0.438-0.035-0.672-0.104c-0.43-0.126-0.894-0.399-1.103-0.648l-0.024-0.029
				l0.352-0.539l0.045,0.05c0.241,0.268,0.594,0.49,0.942,0.592c0.135,0.04,0.264,0.06,0.384,0.06c0.369,0,0.636-0.19,0.733-0.521
				c0.116-0.395-0.04-0.693-0.574-1.102c-0.754-0.546-1.021-1.086-0.841-1.7c0.168-0.571,0.674-0.926,1.321-0.926
				c0.188,0,0.382,0.03,0.579,0.087c0.545,0.16,0.838,0.402,0.964,0.533l0.03,0.031l-0.364,0.518l-0.043-0.043
				c-0.147-0.147-0.402-0.347-0.779-0.458c-0.12-0.035-0.235-0.053-0.341-0.053c-0.385,0-0.59,0.231-0.653,0.448
				c-0.11,0.374,0.043,0.638,0.629,1.088c0.742,0.569,0.977,1.088,0.787,1.735C308.739,383.427,308.226,383.794,307.547,383.794z
				 M305.878,383.003c0.208,0.228,0.631,0.471,1.025,0.587c0.227,0.066,0.442,0.1,0.644,0.1c0.63,0,1.105-0.339,1.272-0.907
				c0.179-0.607-0.039-1.078-0.751-1.624c-0.538-0.414-0.804-0.728-0.665-1.2c0.074-0.253,0.312-0.522,0.753-0.522
				c0.116,0,0.24,0.019,0.37,0.057c0.362,0.106,0.618,0.291,0.778,0.441l0.244-0.347c-0.133-0.127-0.406-0.333-0.888-0.475
				c-0.188-0.055-0.373-0.083-0.551-0.083c-0.6,0-1.067,0.326-1.222,0.852c-0.167,0.565,0.089,1.069,0.804,1.587
				c0.576,0.441,0.742,0.77,0.611,1.214c-0.111,0.378-0.415,0.596-0.833,0.596c-0.13,0-0.269-0.021-0.413-0.064
				c-0.345-0.101-0.693-0.313-0.944-0.573L305.878,383.003z"/>
		</g>
		<g>
			<path fill="#212529" d="M311.534,380.09l-0.741,1.842l2.129,0.857l0.741-1.842l0.575,0.231l-1.772,4.402l-0.575-0.231
				l0.831-2.064l-2.129-0.857l-0.831,2.064l-0.568-0.229l1.772-4.402L311.534,380.09z"/>
			<path fill="#212529" d="M312.495,385.648l-0.672-0.27l0.831-2.064l-2.032-0.818l-0.831,2.064l-0.665-0.268l1.812-4.498
				l0.664,0.268l-0.741,1.842l2.033,0.818l0.741-1.842l0.671,0.271L312.495,385.648z M311.958,385.321l0.479,0.193l1.733-4.306
				l-0.479-0.192l-0.741,1.842l-2.226-0.896l0.741-1.842l-0.472-0.19l-1.734,4.306l0.473,0.19l0.831-2.064l2.226,0.896
				L311.958,385.321z"/>
		</g>
		<g>
			<path fill="#212529" d="M314.696,385.028l-1.137,1.086l-0.56-0.298l3.653-3.432l0.652,0.348l-0.8,4.95l-0.578-0.308l0.254-1.556
				L314.696,385.028z M316.294,385.337l0.231-1.424c0.053-0.323,0.122-0.605,0.189-0.88l-0.013-0.006
				c-0.194,0.215-0.398,0.434-0.615,0.646l-1.055,0.994L316.294,385.337z"/>
			<path fill="#212529" d="M316.544,387.762l-0.675-0.359l0.254-1.556l-1.419-0.755l-1.137,1.086l-0.656-0.35l3.732-3.506
				l0.719,0.382l-0.006,0.037L316.544,387.762z M315.984,387.346l0.481,0.256l0.783-4.842l-0.587-0.313l-3.573,3.356l0.462,0.246
				l1.137-1.086l1.551,0.826L315.984,387.346z M316.333,385.417l-1.389-0.74l1.107-1.043c0.184-0.18,0.379-0.385,0.612-0.643
				l0.026-0.03l0.084,0.044l-0.02,0.082c-0.063,0.26-0.129,0.529-0.179,0.833L316.333,385.417z M315.12,384.653l1.134,0.604
				l0.22-1.353c0.042-0.259,0.096-0.491,0.149-0.714c-0.184,0.201-0.345,0.368-0.5,0.519L315.12,384.653z"/>
		</g>
		<g>
			<path fill="#212529" d="M316.994,387.991l2.664-3.928l0.553,0.375l-0.088,2.84c-0.021,0.658-0.074,1.226-0.161,1.754l0.016,0.002
				c0.31-0.556,0.622-1.042,1.036-1.653l1.114-1.644l0.479,0.324l-2.663,3.927l-0.514-0.348l0.104-2.838
				c0.022-0.623,0.065-1.25,0.155-1.809l-0.021-0.006c-0.307,0.515-0.615,0.995-1.058,1.647l-1.138,1.678L316.994,387.991z"/>
			<path fill="#212529" d="M319.957,390.063l-0.58-0.393l0.105-2.867c0.023-0.648,0.063-1.167,0.126-1.612
				c-0.273,0.45-0.56,0.892-0.955,1.476l-1.167,1.721l-0.563-0.382l2.721-4.014l0.62,0.421l-0.089,2.869
				c-0.018,0.552-0.059,1.052-0.125,1.522c0.284-0.494,0.578-0.943,0.921-1.45l1.144-1.686l0.564,0.382L319.957,390.063z
				 M319.483,389.616l0.446,0.303l2.605-3.842l-0.392-0.266l-1.086,1.6c-0.389,0.575-0.714,1.075-1.033,1.65l-0.018,0.031
				l-0.104-0.014l0.009-0.053c0.087-0.534,0.14-1.105,0.16-1.748l0.087-2.812l-0.486-0.33l-2.605,3.841l0.393,0.266l1.108-1.636
				c0.445-0.657,0.752-1.133,1.057-1.645l0.02-0.034l0.104,0.029l-0.007,0.045c-0.079,0.485-0.128,1.058-0.155,1.803
				L319.483,389.616z"/>
		</g>
		<g>
			<path fill="#212529" d="M324.083,387.911l-1.11-0.921l0.333-0.401l2.704,2.243l-0.333,0.401l-1.116-0.926l-2.697,3.252
				l-0.477-0.396L324.083,387.911z"/>
			<path fill="#212529" d="M321.87,391.632l-0.557-0.462l2.697-3.252l-1.111-0.921l0.398-0.481l2.784,2.309l-0.398,0.481
				l-1.116-0.926L321.87,391.632z M321.46,391.156l0.396,0.33l2.697-3.252l1.116,0.926l0.267-0.321l-2.624-2.176l-0.267,0.321
				l1.11,0.921L321.46,391.156z"/>
		</g>
		<g>
			<path fill="#212529" d="M324.5,391.894l-1.395,0.725l-0.454-0.442l4.467-2.273l0.529,0.516l-2.152,4.529l-0.469-0.457
				l0.679-1.423L324.5,391.894z M325.948,392.637l0.621-1.302c0.141-0.295,0.286-0.546,0.428-0.792l-0.011-0.01
				c-0.246,0.153-0.504,0.305-0.771,0.448l-1.291,0.659L325.948,392.637z"/>
			<path fill="#212529" d="M325.512,395.036l-0.548-0.534l0.679-1.423l-1.151-1.122l-1.396,0.725l-0.532-0.519l4.564-2.324
				l0.582,0.568L325.512,395.036z M325.09,394.48l0.39,0.38l2.105-4.43l-0.477-0.464l-4.369,2.224l0.375,0.365l1.396-0.725
				l1.259,1.227L325.09,394.48z M325.965,392.725l-1.128-1.099l1.355-0.692c0.233-0.125,0.478-0.267,0.767-0.446l0.035-0.021
				l0.068,0.066l-0.053,0.091c-0.13,0.227-0.265,0.462-0.394,0.733L325.965,392.725z M325.013,391.653l0.92,0.896l0.59-1.237
				c0.112-0.237,0.229-0.445,0.343-0.645c-0.229,0.139-0.43,0.254-0.625,0.359L325.013,391.653z"/>
		</g>
		<g>
			<path fill="#212529" d="M330.007,397.128c0.492-0.444,1.084-0.978,1.548-1.345l-0.013-0.017c-0.535,0.225-1.118,0.443-1.777,0.67
				l-2.317,0.798l-0.292-0.361l1.273-2.019c0.377-0.596,0.733-1.129,1.087-1.588l-0.009-0.011c-0.469,0.361-1.108,0.835-1.688,1.25
				l-1.661,1.183l-0.368-0.455l3.896-2.73l0.492,0.607l-1.273,2.074c-0.33,0.521-0.633,0.975-0.94,1.378l0.013,0.016
				c0.448-0.208,0.959-0.405,1.557-0.618l2.315-0.788l0.492,0.607l-3.501,3.217l-0.377-0.465L330.007,397.128z"/>
			<path fill="#212529" d="M328.834,399.073l-0.442-0.546l1.58-1.438c0.41-0.37,0.904-0.815,1.329-1.167
				c-0.455,0.185-0.955,0.37-1.52,0.563l-2.351,0.81l-0.339-0.418l1.293-2.051c0.349-0.55,0.633-0.975,0.895-1.332
				c-0.427,0.323-0.941,0.703-1.43,1.053l-1.701,1.211l-0.434-0.535l3.981-2.79l0.545,0.673l-1.293,2.105
				c-0.331,0.524-0.598,0.918-0.846,1.253c0.373-0.167,0.818-0.341,1.414-0.553l2.35-0.8l0.546,0.673L328.834,399.073z
				 M328.534,398.538l0.312,0.384l3.424-3.146l-0.438-0.542l-2.28,0.777c-0.672,0.239-1.151,0.429-1.552,0.616l-0.037,0.017
				l-0.064-0.08l0.025-0.032c0.275-0.361,0.564-0.785,0.938-1.375l1.254-2.042l-0.438-0.541l-3.811,2.67l0.303,0.373l1.621-1.154
				c0.591-0.423,1.222-0.89,1.687-1.249l0.04-0.031l0.066,0.083l-0.025,0.032c-0.314,0.409-0.649,0.897-1.085,1.584l-1.253,1.987
				l0.246,0.304l2.282-0.787c0.673-0.231,1.253-0.45,1.774-0.668l0.036-0.015l0.07,0.087l-0.041,0.033
				c-0.464,0.367-1.063,0.908-1.545,1.342L328.534,398.538z"/>
		</g>
	</g>
</g>
</svg>
